<svg id="Layer_1" data-name="Layer 1" xmlns="http://www.w3.org/2000/svg" viewBox="0 0 1340.08 425.95"><defs><style>.cls-1{fill:#cc9;}.cls-2{fill:#291500;}.cls-3{fill:none;stroke:#996;stroke-miterlimit:10;}.cls-4{font-size:130.13px;}.cls-4,.cls-5,.cls-6{fill:#300;}.cls-4,.cls-5{font-family:CaptainKiddDemo, Captain Kidd Demo;}.cls-5{font-size:170.93px;}</style></defs><title>hangmanlogo</title><path class="cls-1" d="M948,149.28v3H932.37v-.19A53.46,53.46,0,0,1,948,149.28Z" transform="translate(66.58 -50.1)"/><path class="cls-1" d="M930.67,141.75c13.54,0,5.45-3.24,16.54,3.05-18.72,1.62-14.18,2-32.08-.86-6-.85-2.18.58-4.09-3.24C917.59,141,924.13,141.37,930.67,141.75Z" transform="translate(66.58 -50.1)"/><path class="cls-1" d="M184.48,114.69c-.73,1.34-2.51,1.15-2.51,3.24v3.24c-10.38,0-23.37-1-31.16-3.24v-3.24C166.39,116.22,149.22,122,184.48,114.69Z" transform="translate(66.58 -50.1)"/><path class="cls-1" d="M182,125.46V132c-23.37,0-5.19,2.86-33.75-3.33v-5.34C148.22,127.65,163.8,127.27,182,125.46Z" transform="translate(66.58 -50.1)"/><path class="cls-1" d="M182.86,137.37c-.55,6.77-8.37,5.72-13.45,6.58a4.87,4.87,0,0,0,.21.53L167,145.57c-1.92-2.3-4.84-2.49-10.72-4.09-6.54-1.72-5.36,0-9.54-6.2C163.86,139.47,163.32,139,182.86,137.37Z" transform="translate(66.58 -50.1)"/><path class="cls-1" d="M218.32,333.46v1.05c-7.79,0-12.55,1.14-18,1.91-6.91,1-11.82-.1-16.55,3.33s-8.42,3-14.93,3.33l-.06-1.37a31.52,31.52,0,0,0,7.36-1.39C195.32,333.46,182,328.51,218.32,333.46Z" transform="translate(66.58 -50.1)"/><path class="cls-1" d="M98.88,281.44v4.38c-13,0-17.81,8.1-20,9.72.64-4,1.55-7.91,2.18-11.91C91.61,280.87,85.9,281.44,98.88,281.44Z" transform="translate(66.58 -50.1)"/><path class="cls-2" d="M932.37,152.05v.19H948v-3A53.46,53.46,0,0,0,932.37,152.05Zm-20.77-2.2v2.39h18.18v-.77C919.39,151.47,911.6,151.19,911.6,149.85ZM892.82,324.16l.34-.08Zm.38-.09c.21,0,.49-.11.83-.2ZM1266.46,69.15c0,.38,6.54.19,6.54.57-7.54.76-20.81,2-28.17,3.81-3.91,1.43-7.73,2.76-11.63,4.19-25.54,8.77-1.09,9.91-27.72,6.58-5.27-.38-6.63,1.14-12.36,1.14-6.54,0-7.72-.48-13.09,1.43-4.09,1.43-6.08,3-9.63,4,2.09,1.53,4.27,3,6.45,4.58,5.27-.58,6.73-1.34,9,1.9l-28.72,8.86c-4.36,2.1-7.45,6.77-6.09,12.29,1.64,6.48,5,5.91,12.09,5.91-5.18,3.53-10.54,6.86-16.36,8.86-4.36,1.53-6.18,1.24-10.54-.28-4.81-1.62-2.81.09-9.27.09-1.72-2.86-3.45-5.81-5.18-8.67l-.52-2.7,3.61-1.59q2.6,4.29,5.18,8.58c13.45,1.71,8.64,2.19,21.72-1-4.27-8-7.09-11.43-2.45-19.91,2.82-5.15,9.9-8.77,14.81-11.53.55-4.58,2-5.72,5.18-8.67-9.72-2.48-20.63-2.58-21.72-16.2-4.72,1.43-11.36,2.09-14.45,6.48,1.37.76,2.82,1.43,4.18,2.19-4.63,3.81-9.18,7.72-13.72,11.62-10.18,8.77-20.72,14.49-35.35,11.63-11.18-2.19-12.27-3.15-15-9.15-4.64-1.24-12-1.9-13.45-7.62-3.18,1.62-6.46,3.33-9.73,5-10.36,4.58-52,8-61.43,6.86-8.36-1-30.72-5.24-37.26.1-12.27,10.1,5.91,62.12,6.18,69.37A62.24,62.24,0,0,0,959,180.25c2.82,12.77,3.73,10.67,3.73,25.44,0,13.05-1.91,27.25,2.64,39.45,6,16-1.36,36.39,4.91,52.21,1.54,3.72,4,5.15,6.91,6.86,15.26,9.15,38.63,7.91,43.35,10.86s10.56,9.53,13.46,14c-4.09,9.53-3.33,12-11.33,17.34a34.83,34.83,0,0,1-9.76,4.86c-3.54,1.05-7,2-10.43,3.05-1.2.24-2.76.5-4.43.74a108.74,108.74,0,0,1-11.17,1.17V354c10.39-3.24,37-8.29,38-20.58-9.08,6.2-17.39,13-29.11,13,2.09-1.62,4.27-3.33,6.45-5.05,8.27-5.43,18.81-7.81,17.27-15.53-1.46,1.43-2.91,2.76-4.36,4.1-3.64,2.95-13.73,7.43-17.36,5.71l16.54-13c-2.09-.67-4.09-1.43-6.18-2.1-2.91,3.72-4.36,6-9.27,6.48a15.65,15.65,0,0,1,5.09-7.62c-3.09-.95-6.27-2-9.45-3.05-35.44-9.05-31.81-16-31.81-51.06-3-.29-5-.19-7.81-1.52-.55-.29-1.55-.85-2.09-1.14a14.32,14.32,0,0,1-5.64-8.17c1.36-1.53,2.64-3,3.91-4.53.82,2.57,1.54,5.32,2.27,7.89,2.09.39,4.18.93,6.27,1.31-.91-13.62-2.09-25.1-2.09-38.73h-1.83v-2.72h1.83c-2.73-5.45-4.18-7-4.18-12,1.45-1.53,2.82-4.24,4.18-5.67-2.09-1.81-4.18-1.36-6.18-6.81h6.18c-12.81-5.45-10.72,0-14.45-5.45h12.36c-1.54-2.72-3.09-5.9-4.63-8.95-4.09-3-6.18-2-8.82-4.67h10.36c-9.63-10.9-5.35-3-13.25-7,3.18-4,7.55-3.66,12.64-3.66-10.36-7.81-5.43-4.19-18.24-4.29-7.54-.38-16.75-.76-21.94-1.14v4.38c5.19.39,12,.77,18.06,1.15,3.18.38,1.7,1,6,1.05-8.27,1.42-18.84,2.85-24,4.28v2.5h12.89c-1,2.73-1.82,3.42-3.46,4.28-7.9,4.19-12-3.25-12,9.52L922.38,184c-4.45,2.19-8.18,4.39-13.37,6.48v4.39A53.05,53.05,0,0,1,915.2,197c-.9.76-1.79,1.62-2.79,2.47-2.27,1.15-.45.48-3.36.77,1.36,2.09,2.73,4.28,4.09,6.48-2.63,5.14-3.17,6.95-3.08,12.95,0,5.05-.35,11.34,0,16.3.72,9.43,3.94,18.2,4.21,28.11.18,6.95-1,8.86-1,15.15-.09,6.86,1,9.91,1.23,15.15.81,16.58-3.55,13.15-9.09,21.72,6.18.48,11.38.86,19.17,1.34v3c-7.79.77-25.81.77-29.44,3.24,4.36,0,7.9,1.34,11.44,2.48,3,.95,3.08.48,6.35.95.1.1,2.81.67,3.26.86a5.78,5.78,0,0,1,2.06,1.05c-12,1.14-24.15,2.29-36.14,3.33-4.36.48-6.4,1-8.49,4.29,7.63,1.43,14.92,3,22.56,4.39,7.54.19,5-1.81,23.21,0v3.24c-7.79-.2-20.39-.39-30.85-.58-3.27-.09-1.85,1-5.4,1.53-7.08,1.14-15.63-2.1-22.72-2.1,5.46,2,10.82,3.91,16.18,5.91,3.64,1,5.73.19,9.27,1.05,2.45.57,4.54,1.81,7,2.38,6,1.43,12.9-.57,18.9.86,10,2.38,3.45,2.86,16.9,2.86-4.09.95-8.09,2-12.18,2.95-10.17-.19-25-3.53-35.62-2.19-24.08,3.05-15.08.57-32.35-4.48-3.64-1.14-6.27-2-9.72-2.86,1.72-3.14,3.54-6.38,5.27-9.53.55-.67,7.55-4.34,15.41-8.33,10.1-5.13,21.63-10.77,22.75-11.2,11.91-4.76,10-6.77,17.91-10.48,3.27-1.53,4.72-3.72,7.81-5.91-.18-4.86-.36-9.72-.54-14.48-1.46-14.1,1.45-26.11-1.18-39.93-1.91-9.81-.28-18.1-1.64-27.63-3-21.53.27-62.79.27-85.85.09-9.43-2.09-17.34-2.09-27.06.09-8.19,1.82-22-1-28.2-15.17.38-30.26.57-45.34,2.28-8.55,1-21.09,4.58-29.27,2.29-7.08-1.9-14.9-1.71-21.35-3.62-7.82-2.38-7.36,4.1-17.63-3.05-.73,2.1-1.36,4.29-2.09,6.48-4.18-1.14-11.72-1.62-13.45-6.48-4.82-.76-9.63-1.52-14.45-2.19q-1.26,5.36-2.53,10.7L753,86.84c1.54-13.62,2.36-10.81,4.18-18.72,1.36,1.81,2.73,2.37,4.09,5.1h4.27c1.36,0,3.41,1.2,6.4,1.2,6.37.57,4.86,5.4,12.68,5.59.36-1.81,1.36-3.62,1.72-5.43,21.18,6,5.81,1.24,24,0v3.24c10.38,1.24,24.45,2.76,37.72.86,10.72-1.62,24.91-4.77,36.17-4.1,4.55.19,4.28,1,9.27,1.14C907,76,908,77.25,908,93c0,19.24,2.09,25.25,2.09,41.16a274.12,274.12,0,0,0,35.17,2.19c-2.63-13.53-7.54-28.77,1.36-40.78,4.28-5.81,10.46-3.91,18.63-5.34,15-2.66,28.72,5,43.62,2.39,12.91-2.29,29.27-.67,41.72-6.1,3.18-1.34,5.36-2.19,8.63-3.91,4.18-2.29,3.27-3.24,7.91-3.62-1.09,2.1-2.09,4.29-3.09,6.48,6.81,3,12.81,6.48,20.62,6.48-.9.86-1.9,1.62-2.81,2.48-1.64,2.09-.55-.1-1.27,2.95,16.26,3.72,25.89,3.34,39.07-7.81,3.27-2.77,6.09-5,9.45-7.34-1.09-2.57-2.09-5-3.09-7.62,5.73-1.91,11.54-3.72,17.36-5.62,5.09-1.43,11.45-3.91,16.72-5.24-2.63,3.24-6.09,6.38-8.27,9.81,21.09,13.72,11.27,7.43,34.08,7.53,11.36.09,16.81-1.24,25-7.34,10.36-7.81,6.36-3,18.45-2.29,5.45.29,18.81-3.05,24.72-3.43S1261.91,69.15,1266.46,69.15Zm-47.71,11.72c3.09-.48,2.72-2,6.36-3.05-5.91-3.72-4.27-2.1-8.27-4.29L1209.57,80C1213.48,80,1216.93,81.15,1218.75,80.87ZM947.21,144.8c-11.09-6.29-3-3.05-16.54-3.05-6.54-.38-13.08-.76-19.63-1.05,1.91,3.82-1.91,2.39,4.09,3.24C933,146.8,928.49,146.42,947.21,144.8Z" transform="translate(66.58 -50.1)"/><path class="cls-1" d="M1169.31,87.54c-3.18,2.95-4.63,4.09-5.18,8.67-4.91,2.76-12,6.38-14.81,11.53-4.64,8.48-1.82,11.91,2.45,19.91-13.08,3.24-8.27,2.76-21.72,1q-2.58-4.29-5.18-8.58l-3.61,1.59c-3.61,1.61-7.22,3.25-10.84,4.89.37,2.48.73,5.05,1.09,7.53-5.18-.38-10.54-2.76-16.44-2.1-2,.29-5.37,1.43-7.73,1.72-9.54.95-8.72-5-20,7.15-3.55,3.23-7.09,6.38-10.63,9.52,0,4.2-.09,7.82,1.09,10.77a6.43,6.43,0,0,0,.27.76c1.27,2.48,3.36,3.43,5.18,5.43,13.9,15.82,20.81,6.2,36.89,9,5.82,1.81,11.73,3.62,17.54,5.43-9,19.63,17.45,19.63,28.9,21.73-.18.19-.45.19-.54.47s-.46.38-.55.48c-.54.48-.91.76-1.73,1.52-1.09,1.05-1.54,1.53-2.63,2.67a27,27,0,0,1-13,8,81.82,81.82,0,0,1-17.72,3c-4,.2-5.54.48-8.63,1.81a29.93,29.93,0,0,0-11.63,9.53c-4.91,6.77-3.36,11.34-6.82,14.49-2.63,2.38-3.63,1.14-5.27,5.24-1.72,4.48.64,4.57-4.36,6.29-3.27,1.14-4.82.95-8,2.38-11.54,5.14-11,6.76-9,18.77-4.46,0-8.64.09-11.64.86-3.72.95-6,2.28-9.36,3.05-6.54,1.62-15.72-1.82-23.35-1.72-3.36,0-9.18-.38-12.27.19-4.82.86-22.72,4.57-24.72,7.62-.72,1.72-1.54,3.43-2.36,5.15a29.6,29.6,0,0,0,6.36,6.38c3.82,2.58,4.82,2.38,9.82,3.91,7.81,2.38,14.17,1.43,22.08,1.62-1.37-3.91-2-3.34-8.64-5.05-4-.76-8-1.62-12-2.48.27-4,.45-4.86,4.82-4.29,1.27.19,5.18,1.81,7.17,2.48,5.28.95,10.55,1.91,15.91,2.86-.64-2.29.7-1.24-.67-2.86-2.72-2.95-7.61-3.52-10.21-4.67v-2.19c5.2.19,11.58,3.24,17.85,5.43-.91-3.43-3.94-5.33-6.58-7.62L1030.1,288c0,15.9,7.76,28.54,6.42,41.33l-2.5-.26c-2.9-4.48-8.64-11.15-13.46-14s-28.09-1.71-43.35-10.86c-2.91-1.71-5.37-3.14-6.91-6.86-6.27-15.82,1.09-36.21-4.91-52.21-4.55-12.2-2.64-26.4-2.64-39.45,0-14.77-.91-12.67-3.73-25.44a62.24,62.24,0,0,1-1.45-12.48c-.27-7.25-18.45-59.27-6.18-69.37,6.54-5.34,28.9-1.05,37.26-.1,9.45,1.15,51.07-2.28,61.43-6.86,3.27-1.62,6.55-3.33,9.73-5,1.45,5.72,8.81,6.38,13.45,7.62,2.72,6,3.81,7,15,9.15,14.63,2.86,25.17-2.86,35.35-11.63,4.54-3.9,9.09-7.81,13.72-11.62-1.36-.76-2.81-1.43-4.18-2.19,3.09-4.39,9.73-5,14.45-6.48C1148.68,85,1159.59,85.06,1169.31,87.54Zm-68.06,124.72c.63-.38,1.27-.76,2-1.24-2.81.77-5.54,1.53-8.27,2.2-.72-3.24-8.36-13.53-9.17-14.3-2.09-2.19-9.27,2-10.82,3.15-2.45,1.9-13.08,8.19-13.08,12.29,13.72,9,8.45,7.53,21.72,7.53C1090.7,221.89,1099.52,213.41,1101.25,212.26ZM1095,195.87c1.73,1,1.28-.38-.81-2.19C1092.61,192.44,1090.43,194.06,1095,195.87Zm-31-92h4.09c-.28-3.33,0-2-1-4.29C1064.53,101.26,1064.8,100.11,1064,103.83Zm0-8.67c-1.91.19-.91-.19-2.64.48-6.09,2.38-4.54,4.66-4.63,7.14C1063.53,102.11,1062.9,100,1064,95.16Zm-18.63,4.38c7.9,0,7.81-1.81,12.45-7.62-4.46,1-7.73,3.91-12.45,4.29C1043.54,97.54,1043.9,98.59,1045.36,99.54Zm-1.18,3.62c-.55,3,3.63-1,2.18-.85C1044.45,102.5,1044.54,100.88,1044.18,103.16Zm-24.63,59.17c-.73-1-1.37-2.19-2.09-3.24-2.18,0-6,1.34-7.45,2-4.82,2-2,3-6,7.71C1009.19,166.62,1014.37,164.53,1019.55,162.33ZM1009,245c2.54,3,2.63.76,2.54-1.72-.18-4.76-.18-3.62-5.45-8.38C1006.19,238,1007,242.66,1009,245ZM954.48,112.5h-3.09c.64,3-.45,1.72,2,3.24C954.21,114.31,954,114.5,954.48,112.5Zm-2.73-2.86c2.19-2.67,1.82-1.24,2.73-4.76-5.63.19-6.09,1.81-6.18,7.62C951.66,111.26,949.12,112.6,951.75,109.64Z" transform="translate(66.58 -50.1)"/><path class="cls-2" d="M1163.13,197c-3.09,2.95-5.54,5.5-9.27,7.5-4.81,2.57-5.36,3.94-9.09,7.85-14.54,15-33.71,5.88-48.43,18.37-1.55,1.33-.73.34-2,2-3.27,4.09-2.91,3.54-3.64,8.78-.91,6.67-3.63,6.16-7.08,8.89H1095c-11.54,10.9-14.73,8.35-26.9,13-2.55,1-3.27,3.69-8.47,5.12V275c5.2,1.43,7,2.82,10.46,4.35-5.9,1.71-11.62,3.49-17.43,5.3a41.79,41.79,0,0,0-17.63,4.31c2.36,14,7.36,25,7.27,40,0,9.24-2.55,11.54-6.36,16.88-14.18,20.1-30.63,15.26-38.45,17.55-16.26,4.57-30.17,9.63-47.16,6.9h-8.77v-2.5c17.72,0,38.18-4.12,53.69-8.92a26.72,26.72,0,0,1,3.39-.79c5-.82,9.82-.35,13.9-1.59a33.38,33.38,0,0,0,14-8.2c6.69-6.58,9.43-12.75,10.06-18.89,1.34-12.79-6.42-25.43-6.42-41.33l-11.16-1.14c2.64,2.29,5.67,4.19,6.58,7.62-6.27-2.19-12.65-5.24-17.85-5.43v2.19c2.6,1.15,7.49,1.72,10.21,4.67,1.37,1.62,0,.57.67,2.86-5.36-.95-10.63-1.91-15.91-2.86-2-.67-5.9-2.29-7.17-2.48-4.37-.57-4.55.29-4.82,4.29,4,.86,8,1.72,12,2.48,6.64,1.71,7.27,1.14,8.64,5.05-7.91-.19-14.27.76-22.08-1.62-5-1.53-6-1.33-9.82-3.91a29.6,29.6,0,0,1-6.36-6.38c.82-1.72,1.64-3.43,2.36-5.15,2-3.05,19.9-6.76,24.72-7.62,3.09-.57,8.91-.19,12.27-.19,7.63-.1,16.81,3.34,23.35,1.72,3.37-.77,5.64-2.1,9.36-3.05,3-.77,7.18-.86,11.64-.86-2-12-2.55-13.63,9-18.77,3.18-1.43,4.73-1.24,8-2.38,5-1.72,2.64-1.81,4.36-6.29,1.64-4.1,2.64-2.86,5.27-5.24,3.46-3.15,1.91-7.72,6.82-14.49a29.93,29.93,0,0,1,11.63-9.53c3.09-1.33,4.63-1.61,8.63-1.81a81.82,81.82,0,0,0,17.72-3,27,27,0,0,0,13-8c1.09-1.14,1.54-1.62,2.63-2.67.82-.76,1.19-1,1.73-1.52.09-.1.46-.19.55-.48s.36-.28.54-.47c-11.45-2.1-37.89-2.1-28.9-21.73-5.81-1.81-11.72-3.62-17.54-5.43-16.08-2.76-23,6.86-36.89-9-1.82-2-3.91-2.95-5.18-5.43a6.43,6.43,0,0,1-.27-.76c-1.18-2.95-1.09-6.57-1.09-10.77,3.54-3.14,7.08-6.29,10.63-9.52,11.27-12.11,10.45-6.2,20-7.15,2.36-.29,5.73-1.43,7.73-1.72,5.9-.66,11.26,1.72,16.44,2.1-.36-2.48-.72-5-1.09-7.53,3.62-1.64,7.23-3.28,10.84-4.89l.52,2.7c-2.36,2.19-4.81,4.29-7.18,6.48,1.73,2.48,3.18,4.38,5.73,5.91,3.45,2.19,5.45.66,7.63,3.9-1.09.2-2.27.48-3.36.67-10.54.48-16.54-7-35.08-2-8.18,2.19-2.09.57-8.45-1.62-7.63-2.57-12.63,7.24-18.17,15.91.9,1.62,1.72,3.24,2.54,5,6.18,13.34,9.09,12.48,29.53,12.38,17.09-.09,18.82,7.63,30.54,3.91,4.63-1.52,3.91-1.72,9.72-1.72-2.27,3.91-1.18,2.19-3.54,3.81-3.27,2.1-8.91,4.86-9.73,8.29a48.89,48.89,0,0,0-.18,7.33C1148.14,203.48,1146.23,197.37,1163.13,197Z" transform="translate(66.58 -50.1)"/><path class="cls-2" d="M1103.24,211c-.72.48-1.36.86-2,1.24-1.73,1.15-10.55,9.63-17.63,9.63-13.27,0-8,1.52-21.72-7.53,0-4.1,10.63-10.39,13.08-12.29,1.55-1.15,8.73-5.34,10.82-3.15.81.77,8.45,11.06,9.17,14.3C1097.7,212.55,1100.43,211.79,1103.24,211Zm-15.07,4.39v-6.48c0-.76-18.63-7.34-21.63,6.48C1076.08,216.55,1083,217.31,1088.17,215.41Z" transform="translate(66.58 -50.1)"/><path class="cls-2" d="M1094.16,193.68c2.09,1.81,2.54,3.24.81,2.19C1090.43,194.06,1092.61,192.44,1094.16,193.68Z" transform="translate(66.58 -50.1)"/><path class="cls-2" d="M1068.08,103.83H1064c.81-3.72.54-2.57,3.09-4.29C1068.08,101.83,1067.8,100.5,1068.08,103.83Z" transform="translate(66.58 -50.1)"/><path class="cls-2" d="M1061.35,95.64c1.73-.67.73-.29,2.64-.48-1.09,4.86-.46,7-7.27,7.62C1056.81,100.3,1055.26,98,1061.35,95.64Z" transform="translate(66.58 -50.1)"/><path class="cls-2" d="M1057.81,91.92c-4.64,5.81-4.55,7.62-12.45,7.62-1.46-1-1.82-2,0-3.33C1050.08,95.83,1053.35,93,1057.81,91.92Z" transform="translate(66.58 -50.1)"/><path class="cls-2" d="M1046.36,102.31c1.45-.1-2.73,3.81-2.18.85C1044.54,100.88,1044.45,102.5,1046.36,102.31Z" transform="translate(66.58 -50.1)"/><path class="cls-1" d="M1019.55,325.84c1.54,7.72-9,10.1-17.27,15.53-2.18,1.72-4.36,3.43-6.45,5.05,11.72,0,20-6.76,29.11-13-1,12.29-27.65,17.34-38,20.58v2.2a108.74,108.74,0,0,0,11.17-1.17l.54,2.95a26.72,26.72,0,0,0-3.39.79c-15.51,4.8-36,8.92-53.69,8.92a86.16,86.16,0,0,1-14.48-1.11c-17.72-3.05-34.9-3.91-53.17-3.91-9.18,0-10.91.39-17.72-2-4.46-1.62-8.82-4.86-13.36-5.52-3.46-.48-5.73,0-8.18-1.05-8.18-3.53-4.91-18.58-5.18-29.35-.28-7.91-.64-15.91-1-23.82,5.27-3,11.54-.19,17.54,1-.19.19-.46.19-.55.48-.27.95-8.36,6.95,2.36,4.86,5.73-1.15,4.73-5.44,10.64-2.1-4.55,2.95-9,5.81-13.45,8.67,5.81,0,5.27.1,10-1.43,2.82-.95,5.73-1.91,8.64-2.86-5.28,7.43-15.64,7.05-21.82,13-1.63,2.19-3.36,4.38-5.08,6.48,5.27-1.24,28.08-12.67,33.44-15.82,3.81-2.28,5.72-5.71,9.9-6.86-3.36,5.34-13.36,12.39-18.72,16-3.81,2.67-11,5-16,7.15-3.82,1.62-4.18,2-6.91,4.67-7.9,8-1.91,6.19,6,1.9,4.65-2.44,9.52-3.84,14.41-5.84l.64,1.51c-7.86,4-14.86,7.66-15.41,8.33-1.73,3.15-3.55,6.39-5.27,9.53,3.45.86,6.08,1.72,9.72,2.86,17.27,5.05,8.27,7.53,32.35,4.48,10.63-1.34,25.45,2,35.62,2.19,4.09-.95,8.09-2,12.18-2.95-13.45,0-6.9-.48-16.9-2.86-6-1.43-12.91.57-18.9-.86-2.46-.57-4.55-1.81-7-2.38-3.54-.86-5.63-.1-9.27-1.05-5.36-2-10.72-3.91-16.18-5.91,7.09,0,15.64,3.24,22.72,2.1,3.55-.57,2.13-1.62,5.4-1.53,10.46.19,23.06.38,30.85.58v-3.24c-18.17-1.81-15.67.19-23.21,0-7.64-1.43-14.93-3-22.56-4.39,2.09-3.24,4.13-3.81,8.49-4.29,12-1,24.14-2.19,36.14-3.33a5.78,5.78,0,0,0-2.06-1.05c-.45-.19-3.16-.76-3.26-.86-3.27-.47-3.35,0-6.35-.95-3.54-1.14-7.08-2.48-11.44-2.48,3.63-2.47,21.65-2.47,29.44-3.24v-3c-7.79-.48-13-.86-19.17-1.34,5.54-8.57,9.9-5.14,9.09-21.72-.28-5.24-1.32-8.29-1.23-15.15,0-6.29,1.2-8.2,1-15.15-.27-9.91-3.49-18.68-4.21-28.11-.37-5,0-11.25,0-16.3-.09-6,.45-7.81,3.08-12.95-1.36-2.2-2.73-4.39-4.09-6.48,2.91-.29,1.09.38,3.36-.77,1-.85,1.89-1.71,2.79-2.47a53.05,53.05,0,0,0-6.19-2.19v-4.39c5.19-2.09,8.92-4.29,13.37-6.48L909,185.11c0-12.77,4.1-5.33,12-9.52,1.64-.86,2.46-1.55,3.46-4.28H911.6v-2.5c5.19-1.43,15.76-2.86,24-4.28-4.27-.1-2.79-.67-6-1.05-6.09-.38-12.87-.76-18.06-1.15V158c5.19.38,14.4.76,21.94,1.14,12.81.1,7.88-3.52,18.24,4.29-5.09,0-9.46-.34-12.64,3.66,7.9,4,3.62-3.9,13.25,7H942c2.64,2.72,4.73,1.71,8.82,4.67,1.54,3,3.09,6.23,4.63,8.95H943.12c3.73,5.45,1.64,0,14.45,5.45h-6.18c2,5.45,4.09,5,6.18,6.81-1.36,1.43-2.73,4.14-4.18,5.67,0,5,1.45,6.6,4.18,12h-1.83v2.72h1.83c0,13.63,1.18,25.11,2.09,38.73-2.09-.38-4.18-.92-6.27-1.31-.73-2.57-1.45-5.32-2.27-7.89-1.27,1.52-2.55,3-3.91,4.53a14.32,14.32,0,0,0,5.64,8.17c.54.29,1.54.85,2.09,1.14,2.81,1.33,4.81,1.23,7.81,1.52,0,35.06-3.63,42,31.81,51.06,3.18,1.05,6.36,2.1,9.45,3.05a15.65,15.65,0,0,0-5.09,7.62c4.91-.47,6.36-2.76,9.27-6.48,2.09.67,4.09,1.43,6.18,2.1l-16.54,13c3.63,1.72,13.72-2.76,17.36-5.71C1016.64,328.6,1018.09,327.27,1019.55,325.84ZM937.94,306.4c3.64-1,2.27-.47,4.09-3.24-1.82-1.05-1.27-.85-4.09-1.14ZM935.85,249c4.36-4.58,5.09-3.34,1.09-7.53-1.82,0-2.09-.86-2.36,1.81C933.94,248.28,931.49,249,935.85,249Z" transform="translate(66.58 -50.1)"/><path class="cls-2" d="M1017.46,159.09c.72,1,1.36,2.2,2.09,3.24-5.18,2.2-10.36,4.29-15.54,6.48,4-4.76,1.18-5.71,6-7.71C1011.46,160.43,1015.28,159.09,1017.46,159.09Z" transform="translate(66.58 -50.1)"/><path class="cls-2" d="M1011.55,243.32c.09,2.48,0,4.67-2.54,1.72-2-2.38-2.82-7-2.91-10.1C1011.37,239.7,1011.37,238.56,1011.55,243.32Z" transform="translate(66.58 -50.1)"/><path class="cls-2" d="M951.39,112.5h3.09c-.45,2-.27,1.81-1.09,3.24C950.94,114.22,952,115.45,951.39,112.5Z" transform="translate(66.58 -50.1)"/><path class="cls-2" d="M954.48,104.88c-.91,3.52-.54,2.09-2.73,4.76-2.63,3-.09,1.62-3.45,2.86C948.39,106.69,948.85,105.07,954.48,104.88Z" transform="translate(66.58 -50.1)"/><path class="cls-2" d="M941.53,367.73v2.5H927.58c-12.45,0-21.9-2.14-39.26-2.14-14.63,0-23.72,2-37.26-3.1-3.45-1.24-4.72-2.49-8-3.64-5.82-1.9-15.91,1.21-19.36-12.13-.64-2.29.64-34.93.64-41.89-1.46,1.81-2.82,3.51-4.18,5.32-2.09-5-4.09-10.34-6.18-15.39a100.54,100.54,0,0,1-4.18,10.3h-3.09c-3.27-2.73-5.18-5.15-10-6.3-51.07-11.62-53,15-99.33,9.33-10.17-1.23-20.72-.66-32.17-.95-20.44-.38-23.26-2.57-45.71.86-20.35,2.95-37.8-5.53-48.25-7.43a133.31,133.31,0,0,1-19.81-5.24c-26-9.15-43.62-9.72-71.16-9.91-18.63,0-35,4.86-53.71,3.24-3.81-.29-2.72-.86-7.18-1.05-5.18-.29-10.08.48-15.08-.38-10.45-1.91-19-2.1-29.35-2.86-23-1.81-16-5.05-23.81,4.38.36-4,.72-8,1.09-11.91-1.37,1.81-2.82,3.53-4.18,5.34-4.82-.29-9.64-.67-14.45-1.05-28.26.1-35.44,2.57-60.25,14.86-9.36,4.58-11.18,4.67-24.45,4.67-1.54,25.92,1.82,37.35-9.45,43.17-5.54,2.85-9.63,2.38-16,3.81-6.09,1.43-6.82,3.52-14.27,2.19-11.18-2.1-33.53,5.24-44.35,7.72a85.12,85.12,0,0,1-15.08,2.66c-15.82.86-6.36-4-27.9-7.62-17.9-2.95-28.36-13.43-37.17-16.2-3.64-1.14-8.63-4.38-11.45-6.48-6.82-5.14-13.63-10.29-20.45-15.34-2.91-2.09-2.63-2-4.36-5.14-5.91-10.86-4.82-12.48-4.09-20.77,1.36-16.68,7.18-21.92,6-30-2.82-19-.09-40.68,4.91-58.12,1.63-5.62,1.9-10,2.63-15.63.46-2.86,1.27-4.57,1.73-6.95.82-4.29,3.45-36.78,2.91-42.59-.19-2.77-.55-4.58-.55-8-.09-10.76-5.72-21.25-.36-30.68,4.18-7.53,2.54-5.81,7.54-8.29-.36-2.19-.64-4.38-1-6.57l6-3.43c4.36-4.1-1.91-8.67,14.54-14a65.37,65.37,0,0,1,32.53-1.43,92.81,92.81,0,0,1,14.09,4.76c12.27,5.91,20.17,25.35,14.45,37.93,5.63,1.33,11.27,2.57,16.9,3.81,6.45.09,11-3.24,17.18-3.81-1.91-20-4.09-23.25,11.63-35.45,13.36-10.38,59.34-10,77.25-10,5.81-.38,11.63-.76,17.54-1.05-.36-1.43-.81-2.86-1.17-4.29,6.36,1.62,12.74,3.34,19.1,5.05,6.36,3.15,4.57.38,10,.29,3.72,0,5,1.81,9.33,2.19l.15,2.41c-35.24,2-14.24-2.18-29.18-3.55-2.45,3.14-3,4-7.27,4.38-4.82.28-6.27,1-10.27,1.14-20.9,1-66.43-1.71-82.33,7.91C184.49,85.82,188.4,97,189,111.36c.19,5.33.37,10.67.46,16,.27,2.58-1.27,1.34,1.64,2.48-1.1,1.43-2.09,2.86-3.18,4.29-1.1,3.53,0,29.73.09,36.87,0,5.72-.73,6.58-1.09,10.87-.55,7.71.91,15.81-.36,23.34-.64,4-1.36,6.1-1.72,10.2a465.49,465.49,0,0,1-7.44,52.78c-1.55,7.72-5.61,38.12-3.88,43.64.73,1,1.6,2,2.32,3.05,5.72,7.71,14.67,7,23.55,6.74,1.43-.05,2.87-.08,4.28-.07,11.09,0,19.82,3.72,30.2,8.67v5.43c-7.79,2-18.2,6-26.11,5.91-13.18,0-12.57-1.05-25.38,4.48-9.18,1.24-18.35,2.48-27.53,3.81-4.64-.47-1.81.86-4.08-2.29,5.54-1.42,11-2.95,16.56-4.38l1.48-.1c6.51-.36,10.19.22,14.93-3.33s9.64-2.29,16.55-3.33c5.45-.77,10.21-1.91,18-1.91v-1.05c-36.35-4.95-23,0-42.18,6.86a31.52,31.52,0,0,1-7.36,1.39c-3.05.24-6.07.12-7.64-.62,8.27-3.53,16.08-6.67,23.62-12.11.37-.28.73-.66,1.19-1-5.09,1.53-18.45,7.62-22.72,5.43,9.81-8.29,12-6.19,13.36-9.72-2-.38-4.09-.76-6.18-1.14-4.64-17.34-3-20.58-1.19-38,.64-5.71.64-8,1.64-13.53l6-39.16c.45-3,1.55-9.81,1.82-13.24-1.36-.77-2.72-1.43-4.09-2.2,1.73-2.85,3.46-5.71,5.19-8.67-1.46-1.43-2.81-2.85-4.17-4.28,1.73-1.15,3.48-2.2,5.21-3.24-2.37-1.43-4.68-2.86-7-4.29.64-4,5.6-1.24,8.19-1.14v-3.24c-2.59-.67-8.93-1.2-9.47-3.93h9.26c-3.63-5.45-5-7.6-12.77-9.13v-3.24a117.87,117.87,0,0,1,12.12,1.15c-3.91-5.82-7.33-8.48-9.51-11.91,5.36.28,5.18.57,10.37,3.24v-6.58c-5.19-2.1-10.38-4.29-13-6.48v-3.24c7.79.19,13.48,4.29,14.2-4.29-4.38,0-11.52,1.78-13.57-2.7a4.87,4.87,0,0,1-.21-.53c5.08-.86,12.9.19,13.45-6.58-19.54,1.62-19,2.1-36.17-2.09,4.18,6.19,3,4.48,9.54,6.2,5.88,1.6,8.8,1.79,10.72,4.09.13.16.25.32.37.49-6.55-.29-13.09-.65-19.63-1,5.54,5.9,5.27,5.46,13.45,5.46-2.82,3.43-3.37,4.17-8.27,4.36-5.73.19-6.09.12-6.18,5.56H155a12.21,12.21,0,0,1-10.4,5.3c-.36,2.48-.76,4.91-1,7.49l11.28-1.15a12,12,0,0,1-5.14,4.58c-2.18,1-1.45,1.62-6.65,1.9v3.24c5.2-.28,6.82-.67,10.27-1.05-3.45,2.2-5.07,4.39-10.27,6.48v5.43a61.35,61.35,0,0,0,7.77-1c-2.45,2.19-2.57,4.28-7.77,6.48v4.28c5.2.77,2.88,1.53,3.88,2.19-1.09,1.05-1.39,2-2.49,3.05.82,2.86,1.55,4.77,1.1,6.48-.73,2.77-1.73,18.2-3.09,25.06-.55,3.15-1.28,6.68-1.91,9.82,10.18,5.24,9.27,3.34,9.27,16.3-2.46.66-4.82,1.43-7.27,2.2.45-.38.81-.66,1.18-.94,2.18-2.19,2.36-5.4,1.91-8.74-.55-4.48-1.28-5.28-6.18-5.47-1.28,6.29-3.64,12-4.09,18.61-.82,12.1-.91,9.4,4.09,17.58h-4.09c3.45,2.72,6.9,6.24,10.27,9.48-3.09.66-6.18,1.19-9.27,1.95.36,2.48.72,5.05,1,7.53-2.55,1.72-4.37,3.53-7.18,4.38,1.72,2.1,3.45,4.29,5.18,6.48l-14.45-1.14c3.36,1.81,6.81,3.62,10.27,5.43,7.18,1.81,7.72-.19,9.36,4.38-18.18,0-13.45-2.57-23.72-4.38-3.27-.57-4.55-1.05-8.36-1.05,1.72,1.43,3.54,2.86,5.27,4.2,3.45,2.28,7,2,10.9,3.81,4.73,2.09,2.37,2.66,8.55,4,4.81,1.05,4.9.47,7.36,4.19-4.55-.19-10.18.19-14.27-2.38a17.34,17.34,0,0,0-5.64-2.76c-3-.58-4.63-.67-7.08-1.24a60.14,60.14,0,0,1-6.91-1.43c-10.91-3-11.46-7.15-17.82-7.34,3.18,2.1,6.36,4.19,9.45,6.38,8.9,6.39,5,2.77,13.07,6.86,4.54,1.72,9,3.53,13.51,5.34a31.79,31.79,0,0,0,5.22,2v2.19c-18.17-3.43-13.4-4.09-23.48-6.76a52.31,52.31,0,0,1-12.45-4.72c-3.61-2-6.76-4.25-12.22-7.29-2.91-1.62-2-1.24-4.27-3.05-4.36-3.05-8.63-6.09-13-9.14-17.36-11.34-2.91-22.87,5.36-31.07,4-4,3.72-3.24,9.36-5.24,5.18-1.81,5.27-2.09,12.54-2.09,11.9.09,13.08,1.05,23.08,6.19,4.36,2.19,5.36,3.05,8,6.86,5.27,7.81,5.63,9.43.09,15.25-1.09,1.14-3,3.05-4.82,3.71a11.74,11.74,0,0,1-5,.77c-1.93,0-4.73-.1-9.48-.1,4.37-1.72,8.55-3.62,9.82-8.77-4.73-2.19-14.81-7.24-18.63-5.43,3.18,2.86,6.27,5.72,9.36,8.67-6.27-.66-6.45-.28-12.45-3.24,2.73,3.62,4.82,4.67,7.27,7.53-5.91-1.43-11.72-2.86-17.54-4.29,1.27,5.15,4.73,5.24,9.81,7,4.37,1.52,8.46,2.95,13.27,2.19a57.46,57.46,0,0,1,8.6-.83c6.24,0,1.54,2.25,16.85-6.22.18-14.2.45-28.4.63-42.59,1.18-8.39,5.55-18.3,6.46-26.78,2.36-20.67.18-34,.09-53a96.39,96.39,0,0,1,2.36-20.4c2-9.14,2.63-7.71,1.82-17.53-1.46-18,5.63-45.54,5.18-50.88-1.09-15.24-17.91-21.63-30.08-23.73-6.55-1.14-10.91-1-18.27.1-21.9,3.33-13.36,10-25,18.2,1.36,18.58,0,14.95,0,27.05-3.27-5-5.18-7.62-5.18-14.1-3.45,9.43-3.27,8.56-1.64,19,3.64,23.35.64,33-1.45,54.67C64.44,182.68,62,199,59.81,205.4c-1,3-1.91,5.91-2.82,9a91.3,91.3,0,0,0-1.63,9.92c-2.55,16.77.36,26.06.36,42.41H60.9c0,8.17-7.54,9.71-10.09,14.66-1.45,5.72-2.09,14.19-.27,19.62,1.18,3.53,1.55,5.24,3.45,8.39,2.55,4.09,7.55,6.86,11.45,9.62,4.28,3.14,8.46,6.29,12.73,9.43,6.45,4.1,8.9,3.91,14.08,6.86l.85.47c4.45,2.43,8.88,4.93,13.33,7.44,8.36,4,15.18,4.86,24.54,6.77,17.44,3.52,2.27,9.81,33.53,3.24,6.36-1.34,11.27-2.39,17.9-3.91,16.9-4,29.17-1.62,38.44-4.1,4.64-1.24,12.36-1.71,16.63-4.28,5.64-3.34,4.28-12.39,4.19-18.3,0-8.19,2.09-12.29,2.09-19.44L227.23,302c2.09,3,4.2,5.81,6.29,8.67-4.82-1.81-9.59-3.62-14.49-5.43,3.18,2.86,7.36,4.48,8.36,8.67-7.82-2.38-6.81-3.24-14.36-2.29-5,.67-15.48.19-18.07.19v1.05c10.38.86,22.89-.47,29,7.15a22.72,22.72,0,0,1,1.26,2.57c-4.72-1.43-8.45-4.29-13.45-4.38-4.27-.1-4.36.66-7.36,1q-2.64.33-5,.39c-21.88.66-26.92-14.12-17.34-19.55,2.45-1.33,3.45-1,6.81-1.52,5.46-.67,43.17-3.34,46.53-2.95,8,.95,23,2.95,30.44-.77,34-16.77,39.81-17.72,82.25-17.72,2.36-4.95,4.36-13.82,9.36-15.15.27,5.43.63,10.77,1,16.2,9.81,1.33,34.08,4.29,43.44,4.29,5.9,0,7.72,1.24,14.35,1.14,15.54-.38,31-.76,46.53-1.05,4.82-.38,9.64-.76,14.54-1.05,4.36-.19,3.27-.76,7.18-1.14,7.73-.67,15.54,1.05,22.72,1.05,23.36.09,41.71,10.29,63.43,15.82,4.82,1.23,7.82,2.85,12.09,3.62,16,2.85,25.44,5.62,41.62,2.66,10.18-1.9,35.9-.38,47.07-.38,17.91,0,13.36.19,29.08,2,9.91,1.15,22.18.19,29.45-2.38,58.7-20.67,55.16-6,77.88-4,4-11.91,2.72-17.53,6.45-13.53,4.27,4.67.09,12.39,8,14.67,2.81-3.14,14.54-17.53,15.45-5.43,6.18-.09,12.35-.09,18.53-.09,4.82-.57,9.73-3,15.54-3.24,3.18-.1,5.91.28,9.09-.19,9.91-1.53,12.72-1.72,18.81,7.81-18.35,19.25-13.45,11.15-25.08,21.34-2.73,2.48-10.36,7.82-13.81,9.34-.65.29-1.3.57-1.95.83-4.89,2-9.76,3.4-14.41,5.84-7.91,4.29-13.9,6.1-6-1.9,2.73-2.67,3.09-3.05,6.91-4.67,5-2.1,12.18-4.48,16-7.15,5.36-3.62,15.36-10.67,18.72-16-4.18,1.15-6.09,4.58-9.9,6.86-5.36,3.15-28.17,14.58-33.44,15.82,1.72-2.1,3.45-4.29,5.08-6.48,6.18-5.91,16.54-5.53,21.82-13-2.91.95-5.82,1.91-8.64,2.86-4.72,1.53-4.18,1.43-10,1.43,4.45-2.86,8.9-5.72,13.45-8.67-5.91-3.34-4.91.95-10.64,2.1-10.72,2.09-2.63-3.91-2.36-4.86.09-.29.36-.29.55-.48-6-1.24-12.27-4-17.54-1,.36,7.91.72,15.91,1,23.82.27,10.77-3,25.82,5.18,29.35,2.45,1.05,4.72.57,8.18,1.05,4.54.66,8.9,3.9,13.36,5.52,6.81,2.39,8.54,2,17.72,2,18.27,0,35.45.86,53.17,3.91A86.16,86.16,0,0,0,941.53,367.73ZM182,117.93c0-2.09,1.78-1.9,2.51-3.24-35.26,7.34-18.09,1.53-33.67,0v3.24c7.79,2.29,20.78,3.24,31.16,3.24Zm0,14.1v-6.57c-18.17,1.81-33.75,2.19-33.75-2.1v5.34C176.78,134.89,158.6,132,182,132ZM98.88,285.82v-4.38c-13,0-7.27-.57-17.81,2.19-.63,4-1.54,7.91-2.18,11.91C81.07,293.92,85.9,285.82,98.88,285.82Z" transform="translate(66.58 -50.1)"/><path class="cls-2" d="M942,303.16c-1.82,2.77-.45,2.19-4.09,3.24V302C940.76,302.31,940.21,302.11,942,303.16Z" transform="translate(66.58 -50.1)"/><path class="cls-2" d="M936.94,241.42c4,4.19,3.27,3-1.09,7.53-4.36,0-1.91-.67-1.27-5.72C934.85,240.56,935.12,241.42,936.94,241.42Z" transform="translate(66.58 -50.1)"/><path class="cls-1" d="M907.41,289.73c.18,4.76.36,9.62.54,14.48-3.09,2.19-4.54,4.38-7.81,5.91-7.91,3.71-6,5.72-17.91,10.48-1.12.43-12.65,6.07-22.75,11.2l-.64-1.51c.65-.26,1.3-.54,1.95-.83,3.45-1.52,11.08-6.86,13.81-9.34,11.63-10.19,6.73-2.09,25.08-21.34-6.09-9.53-8.9-9.34-18.81-7.81-3.18.47-5.91.09-9.09.19-5.81.28-10.72,2.67-15.54,3.24-6.18,0-12.35,0-18.53.09-.91-12.1-12.64,2.29-15.45,5.43-7.91-2.28-3.73-10-8-14.67-3.73-4-2.45,1.62-6.45,13.53-22.72-2-19.18-16.67-77.88,4-7.27,2.57-19.54,3.53-29.45,2.38-15.72-1.81-11.17-2-29.08-2-11.17,0-36.89-1.52-47.07.38-16.18,3-25.63.19-41.62-2.66-4.27-.77-7.27-2.39-12.09-3.62-21.72-5.53-40.07-15.73-63.43-15.82-7.18,0-15-1.72-22.72-1.05-3.91.38-2.82.95-7.18,1.14-4.9.29-9.72.67-14.54,1.05-15.54.29-31,.67-46.53,1.05-6.63.1-8.45-1.14-14.35-1.14-9.36,0-33.63-3-43.44-4.29-.37-5.43-.73-10.77-1-16.2-5,1.33-7,10.2-9.36,15.15-42.44,0-48.26,1-82.25,17.72-7.45,3.72-22.44,1.72-30.44.77-3.36-.39-41.07,2.28-46.53,2.95-3.36.48-4.36.19-6.81,1.52-9.58,5.43-4.54,20.21,17.34,19.55l0,2c-8.88.28-17.83,1-23.55-6.74-.72-1.05-1.59-2.09-2.32-3.05-1.73-5.52,2.33-35.92,3.88-43.64a465.49,465.49,0,0,0,7.44-52.78c.36-4.1,1.08-6.2,1.72-10.2,1.27-7.53-.19-15.63.36-23.34.36-4.29,1.09-5.15,1.09-10.87-.09-7.14-1.19-33.34-.09-36.87,1.09-1.43,2.08-2.86,3.18-4.29-2.91-1.14-1.37.1-1.64-2.48-.09-5.33-.27-10.67-.46-16-.63-14.39-4.54-25.54,9.64-34.21,15.9-9.62,61.43-7,82.33-7.91,4-.19,5.45-.86,10.27-1.14,4.27-.38,4.82-1.24,7.27-4.38,14.94,1.37-6.06,5.52,29.18,3.55l3.81-.22c.72-3,1.45-5.81,2.09-8.67,6.63,0,10.72,2.1,16.54,4.29,1.18-5.15,7.09-4,14.9-2.67,28.63,5,54.8,11.72,84.33,12.39l17.54,1.14c30.17,0,60.16-6.29,89.79,0,10.09,2.19,20.9,5.43,31.26,7.24,7,1.24,13.81.67,17.36,1.34,5.27,1,3.09,10.19,3.09,17.43,1,0,1.27,7.53,2.27,7.53.18-5.34,6.27-17.82,10.09-23.82,21.9,5.33,26.08-3.91,48,2.86,17.72,5.43,32.71-1.72,47.25-5.91,13.36-3.81,16.91-3.34,30.81-2.38,0,10.19.64,21.63,4.18,31.44,1.64-3.71.55-3.81,1.36-8.19q1.68-6.79,3.29-13.6,1.27-5.35,2.53-10.7c4.82.67,9.63,1.43,14.45,2.19,1.73,4.86,9.27,5.34,13.45,6.48.73-2.19,1.36-4.38,2.09-6.48,10.27,7.15,9.81.67,17.63,3.05,6.45,1.91,14.27,1.72,21.35,3.62,8.18,2.29,20.72-1.24,29.27-2.29,15.08-1.71,30.17-1.9,45.34-2.28,2.82,6.19,1.09,20,1,28.2,0,9.72,2.18,17.63,2.09,27.06,0,23.06-3.27,64.32-.27,85.85,1.36,9.53-.27,17.82,1.64,27.63C908.86,263.62,906,275.63,907.41,289.73ZM838.8,98.4c0-4.67-.55-4.86-3.09-9.72-2.82,0-2.18.29-4.09,4.38s.54,1.81,2,8.58C835.34,100.59,837.07,99.54,838.8,98.4Zm-5.18,10.86c3.54-1.05,3.72-1.05,4.09-5.43C833.34,104.21,833.62,104.4,833.62,109.26Zm.81,4.57c1.64,1.82,1.82-.57,2.28-2.38C835,111.93,832.71,112,834.43,113.83ZM795.36,281.44c-1-1.43-2-2.86-3.09-4.29-3.91,2.76-3.82,5.72,0,8.67C793.36,284.39,794.36,282.87,795.36,281.44Zm-7.18-9.72c-.37-4-.82-4.38-2.82-6.77-4.63-4.95-9.18-9.91-13.72-14.86,1.09,4.48,3.09,3.91,8.09,11C781.64,263.72,786,270.1,788.18,271.72ZM627,296.59c0-5.15-.63-5.81-4.08-8.58-1.91.38-5.09,1.24-6.64,2.77-1.73,1.52-.82.19-1.63,2.57,9.45,0,8.54-1.81,7.27,7.62C623.6,299.54,625.33,298.11,627,296.59Zm-254.08-222c-.91-3.53-1-3.81-4.91-4.77-2.82-.66-3.91-.28-5.45,2.58C367,75.53,365.88,74.58,372.88,74.58ZM310.9,79c0-4.67-5.54-2.29-8.27-1.14C307.9,82,306.45,82,310.9,79Zm-9.27-2.06a8.36,8.36,0,0,0-2.45-2.3c-6.37-3.63-4.18.8-14-1.4-1.91-.47-9.54-4-6.81,1.55,2.18,4.38,1.9-3.63,5.08,7,1.19,3.81,3.55,5,7.82,5h1.09A100.3,100.3,0,0,0,301.63,76.9ZM256.19,281.44c-9.18,0-1.82,2.76-13.45-1.05,1,4,1.09,2.29,3.09,5.43C251.38,285.82,249,286.49,256.19,281.44ZM232.38,163.38v-3.24c-2.72-.76-.82.1-3.09-1a7.11,7.11,0,0,0-1,4.29ZM204.67,260a9.25,9.25,0,0,0,2.9-4.57c-3.63.09-10.45,2.57-7.45,5.71C201.58,262.67,203.39,261.24,204.67,260Zm-.19-180c-6.9-3.62-13.36,6.1-13.36,10.86.28,1,.64,2.1,1,3.24C193.85,92.87,202.94,82.3,204.48,80Zm-5.18,36.78h-3.09c-1.45,7.43,1,5,2.09,5.43C198.67,120.41,199,118.6,199.3,116.79Zm-5.09-14c5.28-3.71,5-5.52,7.18-11.91-4,.1-8.27,2.48-8.27,7.53C193.49,99.83,193.85,101.26,194.21,102.78Zm2,8.67c3.37-1.9,5.46-3.14,1.09-6.57C193.49,107.64,194.67,108.21,196.21,111.45Z" transform="translate(66.58 -50.1)"/><path class="cls-2" d="M835.71,88.68c2.54,4.86,3.09,5,3.09,9.72-1.73,1.14-3.46,2.19-5.18,3.24-1.46-6.77-4-4.48-2-8.58S832.89,88.68,835.71,88.68Z" transform="translate(66.58 -50.1)"/><path class="cls-2" d="M837.71,103.83c-.37,4.38-.55,4.38-4.09,5.43C833.62,104.4,833.34,104.21,837.71,103.83Z" transform="translate(66.58 -50.1)"/><path class="cls-2" d="M836.71,111.45c-.46,1.81-.64,4.2-2.28,2.38S835,111.93,836.71,111.45Z" transform="translate(66.58 -50.1)"/><path class="cls-2" d="M792.27,277.15c1.09,1.43,2.09,2.86,3.09,4.29-1,1.43-2,2.95-3.09,4.38C788.45,282.87,788.36,279.91,792.27,277.15Z" transform="translate(66.58 -50.1)"/><path class="cls-2" d="M785.36,265c2,2.39,2.45,2.77,2.82,6.77-2.18-1.62-6.54-8-8.45-10.67-5-7.05-7-6.48-8.09-11C776.18,255,780.73,260,785.36,265Z" transform="translate(66.58 -50.1)"/><path class="cls-2" d="M753,86.84l2.65.63q-1.62,6.8-3.29,13.6c-.81,4.38.28,4.48-1.36,8.19-3.54-9.81-4.18-21.25-4.18-31.44-13.9-1-17.45-1.43-30.81,2.38-14.54,4.19-29.53,11.34-47.25,5.91-21.9-6.77-26.08,2.47-48-2.86-3.82,6-9.91,18.48-10.09,23.82-1,0-1.27-7.53-2.27-7.53,0-7.24,2.18-16.39-3.09-17.43C601.79,81.44,595,82,588,80.77c-10.36-1.81-21.17-5-31.26-7.24-29.63-6.29-59.62,0-89.79,0l-17.54-1.14C419.86,71.72,393.69,65,365.06,60c-7.81-1.33-13.72-2.48-14.9,2.67-5.82-2.19-9.91-4.29-16.54-4.29-.64,2.86-1.37,5.72-2.09,8.67l-3.81.22-.15-2.41c-.81-2-1.59-4-2.41-6-2.18-4.2-3.45-3.43-6.45-8.1,9.63,1.43,19.06,2.86,29.44,4.28V51.81c5.19.57,11.55,1,17.63,1.52,23.36,4,57.62,12.86,80.43,12.58,12.91-.1,21.45,1.81,35.26.09l26.81-1.14c4.73-.1,4.36-.76,8.18-1,11.18-1,26,.57,35.17,2.1,10.72,1.9,19.45,4.67,30.53,7,10.45,2,20.9,4,31.45,6.1q-.55,4.86-1.09,9.72c2.36-7,7.45-9.33,13.81-9.14,9.36,1.62,13.9-.45,20.54-1.4,23.9-3.62,30.26,10.9,59.07-.82,9.54-3.9,37.44-12.77,45-1.43,1.64,2.29,1.09,5.49,1.09,10.94Z" transform="translate(66.58 -50.1)"/><path class="cls-2" d="M622.88,288c3.45,2.77,4.08,3.43,4.08,8.58-1.63,1.52-3.36,3-5.08,4.38,1.27-9.43,2.18-7.62-7.27-7.62.81-2.38-.1-1.05,1.63-2.57C617.79,289.25,621,288.39,622.88,288Z" transform="translate(66.58 -50.1)"/><path class="cls-2" d="M368,69.81c3.91,1,4,1.24,4.91,4.77-7,0-5.91,1-10.36-2.19C364.06,69.53,365.15,69.15,368,69.81Z" transform="translate(66.58 -50.1)"/><path class="cls-2" d="M302.63,77.82c2.73-1.15,8.27-3.53,8.27,1.14C306.45,82,307.9,82,302.63,77.82Z" transform="translate(66.58 -50.1)"/><path class="cls-2" d="M299.18,74.6a8.36,8.36,0,0,1,2.45,2.3,100.3,100.3,0,0,1-9.27,9.94h-1.09c-4.27,0-6.63-1.23-7.82-5-3.18-10.68-2.9-2.67-5.08-7-2.73-5.53,4.9-2,6.81-1.55C295,75.4,292.81,71,299.18,74.6Zm-5.82,9.7c1.36-1.81,2.73-3.62,4.09-5.34-3.45-.76-6.82-1.52-10.27-2.19C287.18,84.11,288.27,84.3,293.36,84.3Z" transform="translate(66.58 -50.1)"/><path class="cls-2" d="M242.74,280.39c11.63,3.81,4.27,1.05,13.45,1.05-7.18,5.05-4.81,4.38-10.36,4.38C243.83,282.68,243.74,284.39,242.74,280.39Z" transform="translate(66.58 -50.1)"/><path class="cls-1" d="M243.75,303.16c0,7.15-2.09,11.25-2.09,19.44.09,5.91,1.45,15-4.19,18.3-4.27,2.57-12,3-16.63,4.28-9.27,2.48-21.54.1-38.44,4.1-6.63,1.52-11.54,2.57-17.9,3.91-31.26,6.57-16.09.28-33.53-3.24-9.36-1.91-16.18-2.77-24.54-6.77-4.45-2.51-8.88-5-13.33-7.44l1-1.85a52.31,52.31,0,0,0,12.45,4.72c10.08,2.67,5.31,3.33,23.48,6.76v-2.19a31.79,31.79,0,0,1-5.22-2c-4.54-1.81-9-3.62-13.51-5.34-8.09-4.09-4.17-.47-13.07-6.86-3.09-2.19-6.27-4.28-9.45-6.38,6.36.19,6.91,4.38,17.82,7.34a60.14,60.14,0,0,0,6.91,1.43c2.45.57,4.09.66,7.08,1.24a17.34,17.34,0,0,1,5.64,2.76c4.09,2.57,9.72,2.19,14.27,2.38-2.46-3.72-2.55-3.14-7.36-4.19-6.18-1.34-3.82-1.91-8.55-4-3.9-1.81-7.45-1.53-10.9-3.81-1.73-1.34-3.55-2.77-5.27-4.2,3.81,0,5.09.48,8.36,1.05,10.27,1.81,5.54,4.38,23.72,4.38-1.64-4.57-2.18-2.57-9.36-4.38-3.46-1.81-6.91-3.62-10.27-5.43l14.45,1.14c-1.73-2.19-3.46-4.38-5.18-6.48,2.81-.85,4.63-2.66,7.18-4.38-.28-2.48-.64-5.05-1-7.53,3.09-.76,6.18-1.29,9.27-1.95-3.37-3.24-6.82-6.76-10.27-9.48h4.09c-5-8.18-4.91-5.48-4.09-17.58.45-6.58,2.81-12.32,4.09-18.61,4.9.19,5.63,1,6.18,5.47.45,3.34.27,6.55-1.91,8.74-.37.28-.73.56-1.18.94,2.45-.77,4.81-1.54,7.27-2.2,0-13,.91-11.06-9.27-16.3.63-3.14,1.36-6.67,1.91-9.82,1.36-6.86,2.36-22.29,3.09-25.06.45-1.71-.28-3.62-1.1-6.48,1.1-1,1.4-2,2.49-3.05-1-.66,1.32-1.42-3.88-2.19v-4.28c5.2-2.2,5.32-4.29,7.77-6.48a61.35,61.35,0,0,1-7.77,1V187.2c5.2-2.09,6.82-4.28,10.27-6.48-3.45.38-5.07.77-10.27,1.05v-3.24c5.2-.28,4.47-.95,6.65-1.9a12,12,0,0,0,5.14-4.58l-11.28,1.15c.27-2.58.67-5,1-7.49a12.21,12.21,0,0,0,10.4-5.3h-8.27c.09-5.44.45-5.37,6.18-5.56,4.9-.19,5.45-.93,8.27-4.36-8.18,0-7.91.44-13.45-5.46,6.54.38,13.08.74,19.63,1-.12-.17-.24-.33-.37-.49l2.67-1.09c2,4.48,9.19,2.7,13.57,2.7-.72,8.58-6.41,4.48-14.2,4.29v3.24c2.6,2.19,7.79,4.38,13,6.48v6.58c-5.19-2.67-5-3-10.37-3.24,2.18,3.43,5.6,6.09,9.51,11.91A117.87,117.87,0,0,0,169,175.29v3.24c7.79,1.53,9.14,3.68,12.77,9.13H172.5c.54,2.73,6.88,3.26,9.47,3.93v3.24c-2.59-.1-7.55-2.86-8.19,1.14,2.36,1.43,4.67,2.86,7,4.29-1.73,1-3.48,2.09-5.21,3.24,1.36,1.43,2.71,2.85,4.17,4.28-1.73,3-3.46,5.82-5.19,8.67,1.37.77,2.73,1.43,4.09,2.2-.27,3.43-1.37,10.19-1.82,13.24l-6,39.16c-1,5.53-1,7.82-1.64,13.53-1.81,17.44-3.45,20.68,1.19,38,2.09.38,4.18.76,6.18,1.14-1.37,3.53-3.55,1.43-13.36,9.72,4.27,2.19,17.63-3.9,22.72-5.43-.46.29-.82.67-1.19,1-7.54,5.44-15.35,8.58-23.62,12.11,1.57.74,4.59.86,7.64.62l.06,1.37-1.48.1c-5.54,1.43-11,3-16.56,4.38,2.27,3.15-.56,1.82,4.08,2.29,9.18-1.33,18.35-2.57,27.53-3.81,12.81-5.53,12.2-4.48,25.38-4.48,7.91.1,18.32-3.9,26.11-5.91v-5.43c-10.38-5-19.11-8.67-30.2-8.67-1.41,0-2.85,0-4.28.07l0-2q2.37-.06,5-.39c3-.39,3.09-1.15,7.36-1,5,.09,8.73,2.95,13.45,4.38a22.72,22.72,0,0,0-1.26-2.57c-6.09-7.62-18.6-6.29-29-7.15v-1.05c2.59,0,13.07.48,18.07-.19,7.55-.95,6.54-.09,14.36,2.29-1-4.19-5.18-5.81-8.36-8.67,4.9,1.81,9.67,3.62,14.49,5.43-2.09-2.86-4.2-5.72-6.29-8.67ZM171.5,263.05c-1.09-1.05-2.09-2.19-3.18-3.24-1.28.95-4.46,2.29-2.28,4.57C167.59,266,169.86,263.91,171.5,263.05ZM155,275l4.09-5.43c-5.55.47-8.27-3.24-8.27,0C152.14,271.34,153.59,273.15,155,275Zm-13.45-7.53v-2.19h-3.09C140.05,267.72,138.6,266.48,141.51,267.43Z" transform="translate(66.58 -50.1)"/><path class="cls-2" d="M232.38,160.14v3.24h-4.09a7.11,7.11,0,0,1,1-4.29C231.56,160.24,229.66,159.38,232.38,160.14Z" transform="translate(66.58 -50.1)"/><path class="cls-2" d="M207.57,255.43a9.25,9.25,0,0,1-2.9,4.57c-1.28,1.24-3.09,2.67-4.55,1.14C197.12,258,203.94,255.52,207.57,255.43Z" transform="translate(66.58 -50.1)"/><path class="cls-2" d="M191.12,90.87c0-4.76,6.46-14.48,13.36-10.86-1.54,2.29-10.63,12.86-12.36,14.1C191.76,93,191.4,91.92,191.12,90.87Z" transform="translate(66.58 -50.1)"/><path class="cls-2" d="M196.21,116.79h3.09c-.27,1.81-.63,3.62-1,5.43C197.21,121.84,194.76,124.22,196.21,116.79Z" transform="translate(66.58 -50.1)"/><path class="cls-2" d="M201.39,90.87c-2.18,6.39-1.9,8.2-7.18,11.91-.36-1.52-.72-3-1.09-4.38C193.12,93.35,197.4,91,201.39,90.87Z" transform="translate(66.58 -50.1)"/><path class="cls-2" d="M197.3,104.88c4.37,3.43,2.28,4.67-1.09,6.57C194.67,108.21,193.49,107.64,197.3,104.88Z" transform="translate(66.58 -50.1)"/><path class="cls-2" d="M168.32,259.81c1.09,1.05,2.09,2.19,3.18,3.24-1.64.86-3.91,2.95-5.46,1.33C163.86,262.1,167,260.76,168.32,259.81Z" transform="translate(66.58 -50.1)"/><path class="cls-2" d="M159.05,269.53,155,275c-1.37-1.81-2.82-3.62-4.18-5.43C150.78,266.29,153.5,270,159.05,269.53Z" transform="translate(66.58 -50.1)"/><path class="cls-1" d="M129.64,209.28c-.06-.2-.25-.26,0,0Zm0,0c.06.17,0,.44-.49.69-.37.76-2.82.19,2,2.19-.55-2.19,1.36-.48-.82-2.29A7.55,7.55,0,0,1,129.64,209.29ZM146.69,94.11c.45,5.34-6.64,32.87-5.18,50.88.81,9.82.18,8.39-1.82,17.53a96.39,96.39,0,0,0-2.36,20.4c.09,19,2.27,32.3-.09,53-.91,8.48-5.28,18.39-6.46,26.78-.18,14.19-.45,28.39-.63,42.59-15.31,8.47-10.61,6.22-16.85,6.22l0-2.69a11.74,11.74,0,0,0,5-.77c1.82-.66,3.73-2.57,4.82-3.71,5.54-5.82,5.18-7.44-.09-15.25-2.64-3.81-3.64-4.67-8-6.86-10-5.14-11.18-6.1-23.08-6.19-7.27,0-7.36.28-12.54,2.09-5.64,2-5.36,1.24-9.36,5.24-8.27,8.2-22.72,19.73-5.36,31.07,4.36,3,8.63,6.09,13,9.14,2.27,1.81,1.36,1.43,4.27,3.05,5.46,3,8.61,5.32,12.22,7.29l-1,1.85-.85-.47c-5.18-2.95-7.63-2.76-14.08-6.86-4.27-3.14-8.45-6.29-12.73-9.43-3.9-2.76-8.9-5.53-11.45-9.62-1.9-3.15-2.27-4.86-3.45-8.39-1.82-5.43-1.18-13.9.27-19.62,2.55-5,10.09-6.49,10.09-14.66H55.72c0-16.35-2.91-25.64-.36-42.41A91.3,91.3,0,0,1,57,214.36c.91-3.05,1.82-5.91,2.82-9,2.18-6.38,4.63-22.72,5.27-30.06,2.09-21.72,5.09-31.32,1.45-54.67-1.63-10.48-1.81-9.61,1.64-19,0,6.48,1.91,9.15,5.18,14.1,0-12.1,1.36-8.47,0-27,11.63-8.2,3.09-14.87,25-18.2,7.36-1.14,11.72-1.24,18.27-.1C128.78,72.48,145.6,78.87,146.69,94.11Zm-5,2.3c6.09,0,.64-10.11-.82-11.35-4.27-2.38-8.54-6.39-12.81-6.39h-5.81v1.75C122.25,83,135.7,88.51,141.69,96.41Zm-.18,12.23c.54-8.17,1.54-7.37-3.82-12.33-2.45-1.62-13.54-8.13-15.81-5.18,2.09,8.29,5.18,1.16,16.54,17.51Zm-2.09,9.29a24.88,24.88,0,0,0-.19-5.24c-.63-2.76-5.81-9.62-9.72-7.34s.46,5.34,2,6.77c2.09,1.81.55-.1,2.64,2.67,3.27,4.09.18,1.43-3,6.38,1.18,1.91,2.63,5,6.09,4.19C144,123.84,132.15,120.5,139.42,117.93Zm-6.18,17.34c2.18,0,3.27-.76,2.81-3-.45-2.76-2-2.38-4.9-2.48C131.24,132.22,130.87,135.27,133.24,135.27ZM131.15,145c0,3.43,5.18,7,3.09-2.19C132.69,143.18,131.15,143.09,131.15,145Zm3.09,20.58v-3.24h-2C132.87,165.29,131.78,164.05,134.24,165.57Zm-5.09,54.12c3.09,0,2.81-1.23,3.09-4.28-2.82.09-4.82-.38-5.18,2.19C127.51,218.55,127.69,219.69,129.15,219.69Zm.82,29.07a20.85,20.85,0,0,1,2.27-1.91c-8.54-7.81-8.54-9.81-11.36-4.38C122.88,245.42,125.15,245.9,130,248.76Zm2.27-20.39c-1.73-1.72-3.36-3.53-5.09-5.25-.73,1-1.55,2-2.36,3C127.24,226.84,129.78,227.6,132.24,228.37Zm-5.8,30.39c1.18-3.91,1.78-7.62-3-10.19-3.9-2.1-3.74-1.15-8.94-.67v3.24C119.66,253.71,122.62,256.19,126.44,258.76ZM131.15,237c-.18-8.58-7.64-6.1-8.27-5.44C125.69,233.42,128.42,235.23,131.15,237ZM125,275c-.09-5.91-3.55-13.25-7.18-15.25-2.73-1.52-9.27-2.38-12.54-1.14-3.09,1.14-2.18.19-3,3.43,2.36.19,13.18,2.48,14.54,3.14C118.7,266.19,121.15,270.67,125,275Z" transform="translate(66.58 -50.1)"/><path class="cls-2" d="M140.87,85.06c1.46,1.24,6.91,11.35.82,11.35-6-7.9-19.44-13.41-19.44-16V78.67h5.81C132.33,78.67,136.6,82.68,140.87,85.06Z" transform="translate(66.58 -50.1)"/><path class="cls-2" d="M137.69,96.31c5.36,5,4.36,4.16,3.82,12.33h-3.09C127.06,92.29,124,99.42,121.88,91.13,124.15,88.18,135.24,94.69,137.69,96.31Z" transform="translate(66.58 -50.1)"/><path class="cls-2" d="M141.51,265.24v2.19c-2.91-.95-1.46.29-3.09-2.19Z" transform="translate(66.58 -50.1)"/><path class="cls-2" d="M139.23,112.69a24.88,24.88,0,0,1,.19,5.24c-7.27,2.57,4.54,5.91-2.18,7.43-3.46.77-4.91-2.28-6.09-4.19,3.18-5,6.27-2.29,3-6.38-2.09-2.77-.55-.86-2.64-2.67-1.54-1.43-6-4.48-2-6.77S138.6,109.93,139.23,112.69Z" transform="translate(66.58 -50.1)"/><path class="cls-2" d="M136.05,132.32c.46,2.19-.63,3-2.81,3-2.37,0-2-3.05-2.09-5.43C134.06,129.94,135.6,129.56,136.05,132.32Z" transform="translate(66.58 -50.1)"/><path class="cls-2" d="M134.24,142.8c2.09,9.15-3.09,5.62-3.09,2.19C131.15,143.09,132.69,143.18,134.24,142.8Z" transform="translate(66.58 -50.1)"/><path class="cls-2" d="M134.24,162.33v3.24c-2.46-1.52-1.37-.28-2-3.24Z" transform="translate(66.58 -50.1)"/><path class="cls-2" d="M132.24,215.41c-.28,3.05,0,4.28-3.09,4.28-1.46,0-1.64-1.14-2.09-2.09C127.42,215,129.42,215.5,132.24,215.41Z" transform="translate(66.58 -50.1)"/><path class="cls-2" d="M130.33,209.88c2.18,1.81.27.1.82,2.29-4.82-2-2.37-1.43-2-2.19.5-.25.55-.52.49-.69A7.55,7.55,0,0,0,130.33,209.88Z" transform="translate(66.58 -50.1)"/><path class="cls-2" d="M132.24,246.85a20.85,20.85,0,0,0-2.27,1.91c-4.82-2.86-7.09-3.34-9.09-6.29C123.7,237,123.7,239,132.24,246.85Z" transform="translate(66.58 -50.1)"/><path class="cls-2" d="M129.64,209.28c-.25-.26-.06-.2,0,0Z" transform="translate(66.58 -50.1)"/><path class="cls-2" d="M127.15,223.12c1.73,1.72,3.36,3.53,5.09,5.25-2.46-.77-5-1.53-7.45-2.29C125.6,225.13,126.42,224.08,127.15,223.12Z" transform="translate(66.58 -50.1)"/><path class="cls-2" d="M123.4,248.57c4.82,2.57,4.22,6.28,3,10.19-3.82-2.57-6.78-5-12-7.62V247.9C119.66,247.42,119.5,246.47,123.4,248.57Z" transform="translate(66.58 -50.1)"/><path class="cls-2" d="M122.88,231.6c.63-.66,8.09-3.14,8.27,5.44C128.42,235.23,125.69,233.42,122.88,231.6Z" transform="translate(66.58 -50.1)"/><path class="cls-2" d="M117.79,259.71c3.63,2,7.09,9.34,7.18,15.25-3.82-4.29-6.27-8.77-8.18-9.82-1.36-.66-12.18-2.95-14.54-3.14.82-3.24-.09-2.29,3-3.43C108.52,257.33,115.06,258.19,117.79,259.71Z" transform="translate(66.58 -50.1)"/><path class="cls-1" d="M113.27,308.79l0,2.69a57.46,57.46,0,0,0-8.6.83c-4.81.76-8.9-.67-13.27-2.19-5.08-1.72-8.54-1.81-9.81-7,5.82,1.43,11.63,2.86,17.54,4.29-2.45-2.86-4.54-3.91-7.27-7.53,6,3,6.18,2.58,12.45,3.24-3.09-3-6.18-5.81-9.36-8.67,3.82-1.81,13.9,3.24,18.63,5.43-1.27,5.15-5.45,7.05-9.82,8.77C108.54,308.69,111.34,308.79,113.27,308.79Z" transform="translate(66.58 -50.1)"/><path class="cls-3" d="M893.2,324.07c.21,0,.49-.11.83-.2" transform="translate(66.58 -50.1)"/><path class="cls-3" d="M892.82,324.16l.34-.08" transform="translate(66.58 -50.1)"/><path class="cls-3" d="M893.16,324.08l-.34.08-.26.06" transform="translate(66.58 -50.1)"/><path class="cls-3" d="M893.16,324.08h0" transform="translate(66.58 -50.1)"/><path class="cls-3" d="M894.59,323.74l-.27.06-.22.06H894l-.83.2" transform="translate(66.58 -50.1)"/><path class="cls-3" d="M1088.17,208.93v6.48c-5.2,1.9-12.09,1.14-21.63,0C1069.54,201.59,1088.17,208.17,1088.17,208.93Z" transform="translate(66.58 -50.1)"/><path class="cls-3" d="M1044.18,103.16c-.55,3,3.63-1,2.18-.85C1044.45,102.5,1044.54,100.88,1044.18,103.16Z" transform="translate(66.58 -50.1)"/><path class="cls-3" d="M1095,195.87c1.73,1,1.28-.38-.81-2.19C1092.61,192.44,1090.43,194.06,1095,195.87Z" transform="translate(66.58 -50.1)"/><path class="cls-3" d="M129.64,209.28c-.25-.26-.06-.2,0,0Z" transform="translate(66.58 -50.1)"/><line class="cls-3" x1="196.22" y1="159.18" x2="196.22" y2="159.19"/><path class="cls-3" d="M129.15,210c-.37.76-2.82.19,2,2.19-.55-2.19,1.36-.48-.82-2.29a7.55,7.55,0,0,1-.69-.59C129.7,209.46,129.65,209.73,129.15,210Z" transform="translate(66.58 -50.1)"/><path class="cls-3" d="M141.51,267.43v-2.19h-3.09C140.05,267.72,138.6,266.48,141.51,267.43Z" transform="translate(66.58 -50.1)"/><path class="cls-3" d="M134.24,165.57v-3.24h-2C132.87,165.29,131.78,164.05,134.24,165.57Z" transform="translate(66.58 -50.1)"/><path class="cls-3" d="M836.71,111.45c-1.73.48-4,.57-2.28,2.38S836.25,113.26,836.71,111.45Z" transform="translate(66.58 -50.1)"/><path class="cls-3" d="M953.39,115.74c.82-1.43.64-1.24,1.09-3.24h-3.09C952,115.45,950.94,114.22,953.39,115.74Z" transform="translate(66.58 -50.1)"/><path class="cls-3" d="M937.94,306.4c3.64-1,2.27-.47,4.09-3.24-1.82-1.05-1.27-.85-4.09-1.14Z" transform="translate(66.58 -50.1)"/><path class="cls-3" d="M1064,103.83h4.09c-.28-3.33,0-2-1-4.29C1064.53,101.26,1064.8,100.11,1064,103.83Z" transform="translate(66.58 -50.1)"/><path class="cls-3" d="M124.79,226.08c2.45.76,5,1.52,7.45,2.29-1.73-1.72-3.36-3.53-5.09-5.25C126.42,224.08,125.6,225.13,124.79,226.08Z" transform="translate(66.58 -50.1)"/><path class="cls-3" d="M228.29,163.38h4.09v-3.24c-2.72-.76-.82.1-3.09-1A7.11,7.11,0,0,0,228.29,163.38Z" transform="translate(66.58 -50.1)"/><path class="cls-3" d="M198.3,122.22c.37-1.81.73-3.62,1-5.43h-3.09C194.76,124.22,197.21,121.84,198.3,122.22Z" transform="translate(66.58 -50.1)"/><path class="cls-3" d="M131.15,145c0,3.43,5.18,7,3.09-2.19C132.69,143.18,131.15,143.09,131.15,145Z" transform="translate(66.58 -50.1)"/><path class="cls-3" d="M833.62,109.26c3.54-1.05,3.72-1.05,4.09-5.43C833.34,104.21,833.62,104.4,833.62,109.26Z" transform="translate(66.58 -50.1)"/><path class="cls-3" d="M127.06,217.6c.45,1,.63,2.09,2.09,2.09,3.09,0,2.81-1.23,3.09-4.28C129.42,215.5,127.42,215,127.06,217.6Z" transform="translate(66.58 -50.1)"/><path class="cls-3" d="M171.5,263.05c-1.09-1.05-2.09-2.19-3.18-3.24-1.28.95-4.46,2.29-2.28,4.57C167.59,266,169.86,263.91,171.5,263.05Z" transform="translate(66.58 -50.1)"/><path class="cls-3" d="M196.21,111.45c3.37-1.9,5.46-3.14,1.09-6.57C193.49,107.64,194.67,108.21,196.21,111.45Z" transform="translate(66.58 -50.1)"/><path class="cls-3" d="M122.88,231.6c2.81,1.82,5.54,3.63,8.27,5.44C131,228.46,123.51,230.94,122.88,231.6Z" transform="translate(66.58 -50.1)"/><path class="cls-3" d="M133.24,135.27c2.18,0,3.27-.76,2.81-3-.45-2.76-2-2.38-4.9-2.48C131.24,132.22,130.87,135.27,133.24,135.27Z" transform="translate(66.58 -50.1)"/><path class="cls-3" d="M302.63,77.82C307.9,82,306.45,82,310.9,79,310.9,74.29,305.36,76.67,302.63,77.82Z" transform="translate(66.58 -50.1)"/><path class="cls-3" d="M150.78,269.53c1.36,1.81,2.81,3.62,4.18,5.43l4.09-5.43C153.5,270,150.78,266.29,150.78,269.53Z" transform="translate(66.58 -50.1)"/><path class="cls-3" d="M948.3,112.5c3.36-1.24.82.1,3.45-2.86,2.19-2.67,1.82-1.24,2.73-4.76C948.85,105.07,948.39,106.69,948.3,112.5Z" transform="translate(66.58 -50.1)"/><path class="cls-3" d="M935.85,249c4.36-4.58,5.09-3.34,1.09-7.53-1.82,0-2.09-.86-2.36,1.81C933.94,248.28,931.49,249,935.85,249Z" transform="translate(66.58 -50.1)"/><path class="cls-3" d="M207.57,255.43c-3.63.09-10.45,2.57-7.45,5.71,1.46,1.53,3.27.1,4.55-1.14A9.25,9.25,0,0,0,207.57,255.43Z" transform="translate(66.58 -50.1)"/><path class="cls-3" d="M792.27,285.82c1.09-1.43,2.09-2.95,3.09-4.38-1-1.43-2-2.86-3.09-4.29C788.36,279.91,788.45,282.87,792.27,285.82Z" transform="translate(66.58 -50.1)"/><path class="cls-3" d="M1011.55,243.32c-.18-4.76-.18-3.62-5.45-8.38.09,3.05.91,7.72,2.91,10.1C1011.55,248,1011.64,245.8,1011.55,243.32Z" transform="translate(66.58 -50.1)"/><path class="cls-3" d="M245.83,285.82c5.55,0,3.18.67,10.36-4.38-9.18,0-1.82,2.76-13.45-1.05C243.74,284.39,243.83,282.68,245.83,285.82Z" transform="translate(66.58 -50.1)"/><path class="cls-3" d="M1056.72,102.78c6.81-.67,6.18-2.76,7.27-7.62-1.91.19-.91-.19-2.64.48C1055.26,98,1056.81,100.3,1056.72,102.78Z" transform="translate(66.58 -50.1)"/><path class="cls-3" d="M131.15,121.17c1.18,1.91,2.63,5,6.09,4.19,6.72-1.52-5.09-4.86,2.18-7.43a24.88,24.88,0,0,0-.19-5.24c-.63-2.76-5.81-9.62-9.72-7.34s.46,5.34,2,6.77c2.09,1.81.55-.1,2.64,2.67C137.42,118.88,134.33,116.22,131.15,121.17Z" transform="translate(66.58 -50.1)"/><path class="cls-3" d="M362.52,72.39c4.45,3.14,3.36,2.19,10.36,2.19-.91-3.53-1-3.81-4.91-4.77C365.15,69.15,364.06,69.53,362.52,72.39Z" transform="translate(66.58 -50.1)"/><path class="cls-3" d="M788.18,271.72c-.37-4-.82-4.38-2.82-6.77-4.63-4.95-9.18-9.91-13.72-14.86,1.09,4.48,3.09,3.91,8.09,11C781.64,263.72,786,270.1,788.18,271.72Z" transform="translate(66.58 -50.1)"/><path class="cls-3" d="M1045.36,96.21c-1.82,1.33-1.46,2.38,0,3.33,7.9,0,7.81-1.81,12.45-7.62C1053.35,93,1050.08,95.83,1045.36,96.21Z" transform="translate(66.58 -50.1)"/><path class="cls-3" d="M120.88,242.47c2,2.95,4.27,3.43,9.09,6.29a20.85,20.85,0,0,1,2.27-1.91C123.7,239,123.7,237,120.88,242.47Z" transform="translate(66.58 -50.1)"/><path class="cls-3" d="M193.12,98.4c.37,1.43.73,2.86,1.09,4.38,5.28-3.71,5-5.52,7.18-11.91C197.4,91,193.12,93.35,193.12,98.4Z" transform="translate(66.58 -50.1)"/><path class="cls-3" d="M1004,168.81c5.18-2.19,10.36-4.28,15.54-6.48-.73-1-1.37-2.19-2.09-3.24-2.18,0-6,1.34-7.45,2C1005.19,163.1,1008,164.05,1004,168.81Z" transform="translate(66.58 -50.1)"/><path class="cls-3" d="M833.62,101.64c1.72-1,3.45-2.1,5.18-3.24,0-4.67-.55-4.86-3.09-9.72-2.82,0-2.18.29-4.09,4.38S832.16,94.87,833.62,101.64Z" transform="translate(66.58 -50.1)"/><path class="cls-3" d="M614.61,293.35c9.45,0,8.54-1.81,7.27,7.62,1.72-1.43,3.45-2.86,5.08-4.38,0-5.15-.63-5.81-4.08-8.58-1.91.38-5.09,1.24-6.64,2.77C614.51,292.3,615.42,291,614.61,293.35Z" transform="translate(66.58 -50.1)"/><path class="cls-3" d="M191.12,90.87c.28,1,.64,2.1,1,3.24,1.73-1.24,10.82-11.81,12.36-14.1C197.58,76.39,191.12,86.11,191.12,90.87Z" transform="translate(66.58 -50.1)"/><path class="cls-3" d="M114.46,247.9v3.24c5.2,2.57,8.16,5.05,12,7.62,1.18-3.91,1.78-7.62-3-10.19C119.5,246.47,119.66,247.42,114.46,247.9Z" transform="translate(66.58 -50.1)"/><path class="cls-3" d="M102.25,262c2.36.19,13.18,2.48,14.54,3.14,1.91,1.05,4.36,5.53,8.18,9.82-.09-5.91-3.55-13.25-7.18-15.25-2.73-1.52-9.27-2.38-12.54-1.14C102.16,259.71,103.07,258.76,102.25,262Z" transform="translate(66.58 -50.1)"/><path class="cls-3" d="M121.88,91.13c2.09,8.29,5.18,1.16,16.54,17.51h3.09c.54-8.17,1.54-7.37-3.82-12.33C135.24,94.69,124.15,88.18,121.88,91.13Z" transform="translate(66.58 -50.1)"/><path class="cls-3" d="M122.25,80.42c0,2.58,13.45,8.09,19.44,16,6.09,0,.64-10.11-.82-11.35-4.27-2.38-8.54-6.39-12.81-6.39h-5.81v1.75Z" transform="translate(66.58 -50.1)"/><path class="cls-3" d="M287.18,76.77c3.45.67,6.82,1.43,10.27,2.19-1.36,1.72-2.73,3.53-4.09,5.34C288.27,84.3,287.18,84.11,287.18,76.77Z" transform="translate(66.58 -50.1)"/><path class="cls-3" d="M291.27,86.84h1.09a100.3,100.3,0,0,0,9.27-9.94,8.36,8.36,0,0,0-2.45-2.3c-6.37-3.63-4.18.8-14-1.4-1.91-.47-9.54-4-6.81,1.55,2.18,4.38,1.9-3.63,5.08,7C284.64,85.61,287,86.84,291.27,86.84Z" transform="translate(66.58 -50.1)"/><path class="cls-3" d="M1061.9,214.36c13.72,9,8.45,7.53,21.72,7.53,7.08,0,15.9-8.48,17.63-9.63.63-.38,1.27-.76,2-1.24-2.81.77-5.54,1.53-8.27,2.2-.72-3.24-8.36-13.53-9.17-14.3-2.09-2.19-9.27,2-10.82,3.15C1072.53,204,1061.9,210.26,1061.9,214.36Z" transform="translate(66.58 -50.1)"/><path class="cls-3" d="M78.89,295.54c.64-4,1.55-7.91,2.18-11.91,10.54-2.76,4.83-2.19,17.81-2.19v4.38C85.9,285.82,81.07,293.92,78.89,295.54Z" transform="translate(66.58 -50.1)"/><path class="cls-3" d="M932.37,152.05v-.58" transform="translate(66.58 -50.1)"/><path class="cls-3" d="M932.37,152.05A53.46,53.46,0,0,1,948,149.28v3H932.37Z" transform="translate(66.58 -50.1)"/><path class="cls-3" d="M911.6,149.85v-.57" transform="translate(66.58 -50.1)"/><path class="cls-3" d="M911.6,149.85c0,1.34,7.79,1.62,18.18,1.62v.77H911.6Z" transform="translate(66.58 -50.1)"/><path class="cls-3" d="M911,140.7c6.55.29,13.09.67,19.63,1.05,13.54,0,5.45-3.24,16.54,3.05-18.72,1.62-14.18,2-32.08-.86C909.13,143.09,913,144.52,911,140.7Z" transform="translate(66.58 -50.1)"/><path class="cls-3" d="M148.22,123.36c0,4.29,15.58,3.91,33.75,2.1V132c-23.37,0-5.19,2.86-33.75-3.33Z" transform="translate(66.58 -50.1)"/><path class="cls-3" d="M182,117.93v3.24c-10.38,0-23.37-1-31.16-3.24v-3.24c15.58,1.53-1.59,7.34,33.67,0C183.75,116,182,115.84,182,117.93Z" transform="translate(66.58 -50.1)"/><path class="cls-3" d="M1209.57,80l7.27-6.48c4,2.19,2.36.57,8.27,4.29-3.64,1.05-3.27,2.57-6.36,3.05C1216.93,81.15,1213.48,80,1209.57,80Z" transform="translate(66.58 -50.1)"/><path class="cls-3" d="M941.53,367.73a86.16,86.16,0,0,1-14.48-1.11c-17.72-3.05-34.9-3.91-53.17-3.91-9.18,0-10.91.39-17.72-2-4.46-1.62-8.82-4.86-13.36-5.52-3.46-.48-5.73,0-8.18-1.05-8.18-3.53-4.91-18.58-5.18-29.35-.28-7.91-.64-15.91-1-23.82,5.27-3,11.54-.19,17.54,1-.19.19-.46.19-.55.48-.27.95-8.36,6.95,2.36,4.86,5.73-1.15,4.73-5.44,10.64-2.1-4.55,2.95-9,5.81-13.45,8.67,5.81,0,5.27.1,10-1.43,2.82-.95,5.73-1.91,8.64-2.86-5.28,7.43-15.64,7.05-21.82,13-1.63,2.19-3.36,4.38-5.08,6.48,5.27-1.24,28.08-12.67,33.44-15.82,3.81-2.28,5.72-5.71,9.9-6.86-3.36,5.34-13.36,12.39-18.72,16-3.81,2.67-11,5-16,7.15-3.82,1.62-4.18,2-6.91,4.67-7.9,8-1.91,6.19,6,1.9,4.65-2.44,9.52-3.84,14.41-5.84.65-.26,1.3-.54,1.95-.83,3.45-1.52,11.08-6.86,13.81-9.34,11.63-10.19,6.73-2.09,25.08-21.34-6.09-9.53-8.9-9.34-18.81-7.81-3.18.47-5.91.09-9.09.19-5.81.28-10.72,2.67-15.54,3.24-6.18,0-12.35,0-18.53.09-.91-12.1-12.64,2.29-15.45,5.43-7.91-2.28-3.73-10-8-14.67-3.73-4-2.45,1.62-6.45,13.53-22.72-2-19.18-16.67-77.88,4-7.27,2.57-19.54,3.53-29.45,2.38-15.72-1.81-11.17-2-29.08-2-11.17,0-36.89-1.52-47.07.38-16.18,3-25.63.19-41.62-2.66-4.27-.77-7.27-2.39-12.09-3.62-21.72-5.53-40.07-15.73-63.43-15.82-7.18,0-15-1.72-22.72-1.05-3.91.38-2.82.95-7.18,1.14-4.9.29-9.72.67-14.54,1.05-15.54.29-31,.67-46.53,1.05-6.63.1-8.45-1.14-14.35-1.14-9.36,0-33.63-3-43.44-4.29-.37-5.43-.73-10.77-1-16.2-5,1.33-7,10.2-9.36,15.15-42.44,0-48.26,1-82.25,17.72-7.45,3.72-22.44,1.72-30.44.77-3.36-.39-41.07,2.28-46.53,2.95-3.36.48-4.36.19-6.81,1.52-9.58,5.43-4.54,20.21,17.34,19.55q2.37-.06,5-.39c3-.39,3.09-1.15,7.36-1,5,.09,8.73,2.95,13.45,4.38a22.72,22.72,0,0,0-1.26-2.57c-6.09-7.62-18.6-6.29-29-7.15v-1.05c2.59,0,13.07.48,18.07-.19,7.55-.95,6.54-.09,14.36,2.29-1-4.19-5.18-5.81-8.36-8.67,4.9,1.81,9.67,3.62,14.49,5.43-2.09-2.86-4.2-5.72-6.29-8.67l16.52,1.14c0,7.15-2.09,11.25-2.09,19.44.09,5.91,1.45,15-4.19,18.3-4.27,2.57-12,3-16.63,4.28-9.27,2.48-21.54.1-38.44,4.1-6.63,1.52-11.54,2.57-17.9,3.91-31.26,6.57-16.09.28-33.53-3.24-9.36-1.91-16.18-2.77-24.54-6.77-4.45-2.51-8.88-5-13.33-7.44l-.85-.47c-5.18-2.95-7.63-2.76-14.08-6.86-4.27-3.14-8.45-6.29-12.73-9.43-3.9-2.76-8.9-5.53-11.45-9.62-1.9-3.15-2.27-4.86-3.45-8.39-1.82-5.43-1.18-13.9.27-19.62,2.55-5,10.09-6.49,10.09-14.66H55.72c0-16.35-2.91-25.64-.36-42.41A91.3,91.3,0,0,1,57,214.36c.91-3.05,1.82-5.91,2.82-9,2.18-6.38,4.63-22.72,5.27-30.06,2.09-21.72,5.09-31.32,1.45-54.67-1.63-10.48-1.81-9.61,1.64-19,0,6.48,1.91,9.15,5.18,14.1,0-12.1,1.36-8.47,0-27,11.63-8.2,3.09-14.87,25-18.2,7.36-1.14,11.72-1.24,18.27-.1,12.17,2.1,29,8.49,30.08,23.73.45,5.34-6.64,32.87-5.18,50.88.81,9.82.18,8.39-1.82,17.53a96.39,96.39,0,0,0-2.36,20.4c.09,19,2.27,32.3-.09,53-.91,8.48-5.28,18.39-6.46,26.78-.18,14.19-.45,28.39-.63,42.59-15.31,8.47-10.61,6.22-16.85,6.22a57.46,57.46,0,0,0-8.6.83c-4.81.76-8.9-.67-13.27-2.19-5.08-1.72-8.54-1.81-9.81-7,5.82,1.43,11.63,2.86,17.54,4.29-2.45-2.86-4.54-3.91-7.27-7.53,6,3,6.18,2.58,12.45,3.24-3.09-3-6.18-5.81-9.36-8.67,3.82-1.81,13.9,3.24,18.63,5.43-1.27,5.15-5.45,7.05-9.82,8.77,4.75,0,7.55.1,9.48.1a11.74,11.74,0,0,0,5-.77c1.82-.66,3.73-2.57,4.82-3.71,5.54-5.82,5.18-7.44-.09-15.25-2.64-3.81-3.64-4.67-8-6.86-10-5.14-11.18-6.1-23.08-6.19-7.27,0-7.36.28-12.54,2.09-5.64,2-5.36,1.24-9.36,5.24-8.27,8.2-22.72,19.73-5.36,31.07,4.36,3,8.63,6.09,13,9.14,2.27,1.81,1.36,1.43,4.27,3.05,5.46,3,8.61,5.32,12.22,7.29a52.31,52.31,0,0,0,12.45,4.72c10.08,2.67,5.31,3.33,23.48,6.76v-2.19a31.79,31.79,0,0,1-5.22-2c-4.54-1.81-9-3.62-13.51-5.34-8.09-4.09-4.17-.47-13.07-6.86-3.09-2.19-6.27-4.28-9.45-6.38,6.36.19,6.91,4.38,17.82,7.34a60.14,60.14,0,0,0,6.91,1.43c2.45.57,4.09.66,7.08,1.24a17.34,17.34,0,0,1,5.64,2.76c4.09,2.57,9.72,2.19,14.27,2.38-2.46-3.72-2.55-3.14-7.36-4.19-6.18-1.34-3.82-1.91-8.55-4-3.9-1.81-7.45-1.53-10.9-3.81-1.73-1.34-3.55-2.77-5.27-4.2,3.81,0,5.09.48,8.36,1.05,10.27,1.81,5.54,4.38,23.72,4.38-1.64-4.57-2.18-2.57-9.36-4.38-3.46-1.81-6.91-3.62-10.27-5.43l14.45,1.14c-1.73-2.19-3.46-4.38-5.18-6.48,2.81-.85,4.63-2.66,7.18-4.38-.28-2.48-.64-5.05-1-7.53,3.09-.76,6.18-1.29,9.27-1.95-3.37-3.24-6.82-6.76-10.27-9.48h4.09c-5-8.18-4.91-5.48-4.09-17.58.45-6.58,2.81-12.32,4.09-18.61,4.9.19,5.63,1,6.18,5.47.45,3.34.27,6.55-1.91,8.74-.37.28-.73.56-1.18.94,2.45-.77,4.81-1.54,7.27-2.2,0-13,.91-11.06-9.27-16.3.63-3.14,1.36-6.67,1.91-9.82,1.36-6.86,2.36-22.29,3.09-25.06.45-1.71-.28-3.62-1.1-6.48,1.1-1,1.4-2,2.49-3.05-1-.66,1.32-1.42-3.88-2.19v-4.28c5.2-2.2,5.32-4.29,7.77-6.48a61.35,61.35,0,0,1-7.77,1V187.2c5.2-2.09,6.82-4.28,10.27-6.48-3.45.38-5.07.77-10.27,1.05v-3.24c5.2-.28,4.47-.95,6.65-1.9a12,12,0,0,0,5.14-4.58l-11.28,1.15c.27-2.58.67-5,1-7.49a12.21,12.21,0,0,0,10.4-5.3h-8.27c.09-5.44.45-5.37,6.18-5.56,4.9-.19,5.45-.93,8.27-4.36-8.18,0-7.91.44-13.45-5.46,6.54.38,13.08.74,19.63,1-.12-.17-.24-.33-.37-.49-1.92-2.3-4.84-2.49-10.72-4.09-6.54-1.72-5.36,0-9.54-6.2,17.17,4.19,16.63,3.71,36.17,2.09-.55,6.77-8.37,5.72-13.45,6.58a4.87,4.87,0,0,0,.21.53c2,4.48,9.19,2.7,13.57,2.7-.72,8.58-6.41,4.48-14.2,4.29v3.24c2.6,2.19,7.79,4.38,13,6.48v6.58c-5.19-2.67-5-3-10.37-3.24,2.18,3.43,5.6,6.09,9.51,11.91A117.87,117.87,0,0,0,169,175.29v3.24c7.79,1.53,9.14,3.68,12.77,9.13H172.5c.54,2.73,6.88,3.26,9.47,3.93v3.24c-2.59-.1-7.55-2.86-8.19,1.14,2.36,1.43,4.67,2.86,7,4.29-1.73,1-3.48,2.09-5.21,3.24,1.36,1.43,2.71,2.85,4.17,4.28-1.73,3-3.46,5.82-5.19,8.67,1.37.77,2.73,1.43,4.09,2.2-.27,3.43-1.37,10.19-1.82,13.24l-6,39.16c-1,5.53-1,7.82-1.64,13.53-1.81,17.44-3.45,20.68,1.19,38,2.09.38,4.18.76,6.18,1.14-1.37,3.53-3.55,1.43-13.36,9.72,4.27,2.19,17.63-3.9,22.72-5.43-.46.29-.82.67-1.19,1-7.54,5.44-15.35,8.58-23.62,12.11,1.57.74,4.59.86,7.64.62a31.52,31.52,0,0,0,7.36-1.39c19.18-6.86,5.83-11.81,42.18-6.86v1.05c-7.79,0-12.55,1.14-18,1.91-6.91,1-11.82-.1-16.55,3.33s-8.42,3-14.93,3.33l-1.48.1c-5.54,1.43-11,3-16.56,4.38,2.27,3.15-.56,1.82,4.08,2.29,9.18-1.33,18.35-2.57,27.53-3.81,12.81-5.53,12.2-4.48,25.38-4.48,7.91.1,18.32-3.9,26.11-5.91v-5.43c-10.38-5-19.11-8.67-30.2-8.67-1.41,0-2.85,0-4.28.07-8.88.28-17.83,1-23.55-6.74-.72-1.05-1.59-2.09-2.32-3.05-1.73-5.52,2.33-35.92,3.88-43.64a465.49,465.49,0,0,0,7.44-52.78c.36-4.1,1.08-6.2,1.72-10.2,1.27-7.53-.19-15.63.36-23.34.36-4.29,1.09-5.15,1.09-10.87-.09-7.14-1.19-33.34-.09-36.87,1.09-1.43,2.08-2.86,3.18-4.29-2.91-1.14-1.37.1-1.64-2.48-.09-5.33-.27-10.67-.46-16-.63-14.39-4.54-25.54,9.64-34.21,15.9-9.62,61.43-7,82.33-7.91,4-.19,5.45-.86,10.27-1.14,4.27-.38,4.82-1.24,7.27-4.38,14.94,1.37-6.06,5.52,29.18,3.55l3.81-.22c.72-3,1.45-5.81,2.09-8.67,6.63,0,10.72,2.1,16.54,4.29,1.18-5.15,7.09-4,14.9-2.67,28.63,5,54.8,11.72,84.33,12.39l17.54,1.14c30.17,0,60.16-6.29,89.79,0,10.09,2.19,20.9,5.43,31.26,7.24,7,1.24,13.81.67,17.36,1.34,5.27,1,3.09,10.19,3.09,17.43,1,0,1.27,7.53,2.27,7.53.18-5.34,6.27-17.82,10.09-23.82,21.9,5.33,26.08-3.91,48,2.86,17.72,5.43,32.71-1.72,47.25-5.91,13.36-3.81,16.91-3.34,30.81-2.38,0,10.19.64,21.63,4.18,31.44,1.64-3.71.55-3.81,1.36-8.19q1.68-6.79,3.29-13.6,1.27-5.35,2.53-10.7c4.82.67,9.63,1.43,14.45,2.19,1.73,4.86,9.27,5.34,13.45,6.48.73-2.19,1.36-4.38,2.09-6.48,10.27,7.15,9.81.67,17.63,3.05,6.45,1.91,14.27,1.72,21.35,3.62,8.18,2.29,20.72-1.24,29.27-2.29,15.08-1.71,30.17-1.9,45.34-2.28,2.82,6.19,1.09,20,1,28.2,0,9.72,2.18,17.63,2.09,27.06,0,23.06-3.27,64.32-.27,85.85,1.36,9.53-.27,17.82,1.64,27.63,2.63,13.82-.28,25.83,1.18,39.93.18,4.76.36,9.62.54,14.48-3.09,2.19-4.54,4.38-7.81,5.91-7.91,3.71-6,5.72-17.91,10.48-1.12.43-12.65,6.07-22.75,11.2-7.86,4-14.86,7.66-15.41,8.33-1.73,3.15-3.55,6.39-5.27,9.53,3.45.86,6.08,1.72,9.72,2.86,17.27,5.05,8.27,7.53,32.35,4.48,10.63-1.34,25.45,2,35.62,2.19,4.09-.95,8.09-2,12.18-2.95-13.45,0-6.9-.48-16.9-2.86-6-1.43-12.91.57-18.9-.86-2.46-.57-4.55-1.81-7-2.38-3.54-.86-5.63-.1-9.27-1.05-5.36-2-10.72-3.91-16.18-5.91,7.09,0,15.64,3.24,22.72,2.1,3.55-.57,2.13-1.62,5.4-1.53,10.46.19,23.06.38,30.85.58v-3.24c-18.17-1.81-15.67.19-23.21,0-7.64-1.43-14.93-3-22.56-4.39,2.09-3.24,4.13-3.81,8.49-4.29,12-1,24.14-2.19,36.14-3.33a5.78,5.78,0,0,0-2.06-1.05c-.45-.19-3.16-.76-3.26-.86-3.27-.47-3.35,0-6.35-.95-3.54-1.14-7.08-2.48-11.44-2.48,3.63-2.47,21.65-2.47,29.44-3.24v-3c-7.79-.48-13-.86-19.17-1.34,5.54-8.57,9.9-5.14,9.09-21.72-.28-5.24-1.32-8.29-1.23-15.15,0-6.29,1.2-8.2,1-15.15-.27-9.91-3.49-18.68-4.21-28.11-.37-5,0-11.25,0-16.3-.09-6,.45-7.81,3.08-12.95-1.36-2.2-2.73-4.39-4.09-6.48,2.91-.29,1.09.38,3.36-.77,1-.85,1.89-1.71,2.79-2.47a53.05,53.05,0,0,0-6.19-2.19v-4.39c5.19-2.09,8.92-4.29,13.37-6.48L909,185.11c0-12.77,4.1-5.33,12-9.52,1.64-.86,2.46-1.55,3.46-4.28H911.6v-2.5c5.19-1.43,15.76-2.86,24-4.28-4.27-.1-2.79-.67-6-1.05-6.09-.38-12.87-.76-18.06-1.15V158c5.19.38,14.4.76,21.94,1.14,12.81.1,7.88-3.52,18.24,4.29-5.09,0-9.46-.34-12.64,3.66,7.9,4,3.62-3.9,13.25,7H942c2.64,2.72,4.73,1.71,8.82,4.67,1.54,3,3.09,6.23,4.63,8.95H943.12c3.73,5.45,1.64,0,14.45,5.45h-6.18c2,5.45,4.09,5,6.18,6.81-1.36,1.43-2.73,4.14-4.18,5.67,0,5,1.45,6.6,4.18,12h-1.83v2.72h1.83c0,13.63,1.18,25.11,2.09,38.73-2.09-.38-4.18-.92-6.27-1.31-.73-2.57-1.45-5.32-2.27-7.89-1.27,1.52-2.55,3-3.91,4.53a14.32,14.32,0,0,0,5.64,8.17c.54.29,1.54.85,2.09,1.14,2.81,1.33,4.81,1.23,7.81,1.52,0,35.06-3.63,42,31.81,51.06,3.18,1.05,6.36,2.1,9.45,3.05a15.65,15.65,0,0,0-5.09,7.62c4.91-.47,6.36-2.76,9.27-6.48,2.09.67,4.09,1.43,6.18,2.1l-16.54,13c3.63,1.72,13.72-2.76,17.36-5.71,1.45-1.34,2.9-2.67,4.36-4.1,1.54,7.72-9,10.1-17.27,15.53-2.18,1.72-4.36,3.43-6.45,5.05,11.72,0,20-6.76,29.11-13-1,12.29-27.65,17.34-38,20.58v2.2a108.74,108.74,0,0,0,11.17-1.17c1.67-.24,3.23-.5,4.43-.74,3.45-1.05,6.89-2,10.43-3.05a34.83,34.83,0,0,0,9.76-4.86c8-5.33,7.24-7.81,11.33-17.34-2.9-4.48-8.64-11.15-13.46-14s-28.09-1.71-43.35-10.86c-2.91-1.71-5.37-3.14-6.91-6.86-6.27-15.82,1.09-36.21-4.91-52.21-4.55-12.2-2.64-26.4-2.64-39.45,0-14.77-.91-12.67-3.73-25.44a62.24,62.24,0,0,1-1.45-12.48c-.27-7.25-18.45-59.27-6.18-69.37,6.54-5.34,28.9-1.05,37.26-.1,9.45,1.15,51.07-2.28,61.43-6.86,3.27-1.62,6.55-3.33,9.73-5,1.45,5.72,8.81,6.38,13.45,7.62,2.72,6,3.81,7,15,9.15,14.63,2.86,25.17-2.86,35.35-11.63,4.54-3.9,9.09-7.81,13.72-11.62-1.36-.76-2.81-1.43-4.18-2.19,3.09-4.39,9.73-5,14.45-6.48,1.09,13.62,12,13.72,21.72,16.2-3.18,2.95-4.63,4.09-5.18,8.67-4.91,2.76-12,6.38-14.81,11.53-4.64,8.48-1.82,11.91,2.45,19.91-13.08,3.24-8.27,2.76-21.72,1q-2.58-4.29-5.18-8.58l-3.61,1.59c-3.61,1.61-7.22,3.25-10.84,4.89.37,2.48.73,5.05,1.09,7.53-5.18-.38-10.54-2.76-16.44-2.1-2,.29-5.37,1.43-7.73,1.72-9.54.95-8.72-5-20,7.15-3.55,3.23-7.09,6.38-10.63,9.52,0,4.2-.09,7.82,1.09,10.77a6.43,6.43,0,0,0,.27.76c1.27,2.48,3.36,3.43,5.18,5.43,13.9,15.82,20.81,6.2,36.89,9,5.82,1.81,11.73,3.62,17.54,5.43-9,19.63,17.45,19.63,28.9,21.73-.18.19-.45.19-.54.47s-.46.38-.55.48c-.54.48-.91.76-1.73,1.52-1.09,1.05-1.54,1.53-2.63,2.67a27,27,0,0,1-13,8,81.82,81.82,0,0,1-17.72,3c-4,.2-5.54.48-8.63,1.81a29.93,29.93,0,0,0-11.63,9.53c-4.91,6.77-3.36,11.34-6.82,14.49-2.63,2.38-3.63,1.14-5.27,5.24-1.72,4.48.64,4.57-4.36,6.29-3.27,1.14-4.82.95-8,2.38-11.54,5.14-11,6.76-9,18.77-4.46,0-8.64.09-11.64.86-3.72.95-6,2.28-9.36,3.05-6.54,1.62-15.72-1.82-23.35-1.72-3.36,0-9.18-.38-12.27.19-4.82.86-22.72,4.57-24.72,7.62-.72,1.72-1.54,3.43-2.36,5.15a29.6,29.6,0,0,0,6.36,6.38c3.82,2.58,4.82,2.38,9.82,3.91,7.81,2.38,14.17,1.43,22.08,1.62-1.37-3.91-2-3.34-8.64-5.05-4-.76-8-1.62-12-2.48.27-4,.45-4.86,4.82-4.29,1.27.19,5.18,1.81,7.17,2.48,5.28.95,10.55,1.91,15.91,2.86-.64-2.29.7-1.24-.67-2.86-2.72-2.95-7.61-3.52-10.21-4.67v-2.19c5.2.19,11.58,3.24,17.85,5.43-.91-3.43-3.94-5.33-6.58-7.62L1030.1,288c0,15.9,7.76,28.54,6.42,41.33-.63,6.14-3.37,12.31-10.06,18.89a33.38,33.38,0,0,1-14,8.2c-4.08,1.24-8.9.77-13.9,1.59a26.72,26.72,0,0,0-3.39.79C979.71,363.61,959.25,367.73,941.53,367.73Z" transform="translate(66.58 -50.1)"/><path class="cls-3" d="M327.57,64.86c-4.36-.38-5.61-2.19-9.33-2.19-5.46.09-3.67,2.86-10-.29-6.36-1.71-12.74-3.43-19.1-5.05.36,1.43.81,2.86,1.17,4.29-5.91.29-11.73.67-17.54,1.05-17.91,0-63.89-.38-77.25,10-15.72,12.2-13.54,15.44-11.63,35.45-6.18.57-10.73,3.9-17.18,3.81-5.63-1.24-11.27-2.48-16.9-3.81,5.72-12.58-2.18-32-14.45-37.93a92.81,92.81,0,0,0-14.09-4.76,65.37,65.37,0,0,0-32.53,1.43c-16.45,5.34-10.18,9.91-14.54,14l-6,3.43c.36,2.19.64,4.38,1,6.57-5,2.48-3.36.76-7.54,8.29-5.36,9.43.27,19.92.36,30.68,0,3.43.36,5.24.55,8,.54,5.81-2.09,38.3-2.91,42.59-.46,2.38-1.27,4.09-1.73,6.95-.73,5.63-1,10-2.63,15.63-5,17.44-7.73,39.07-4.91,58.12,1.18,8.1-4.64,13.34-6,30-.73,8.29-1.82,9.91,4.09,20.77,1.73,3.14,1.45,3.05,4.36,5.14,6.82,5.05,13.63,10.2,20.45,15.34,2.82,2.1,7.81,5.34,11.45,6.48,8.81,2.77,19.27,13.25,37.17,16.2,21.54,3.62,12.08,8.48,27.9,7.62a85.12,85.12,0,0,0,15.08-2.66c10.82-2.48,33.17-9.82,44.35-7.72,7.45,1.33,8.18-.76,14.27-2.19,6.36-1.43,10.45-1,16-3.81,11.27-5.82,7.91-17.25,9.45-43.17,13.27,0,15.09-.09,24.45-4.67,24.81-12.29,32-14.76,60.25-14.86,4.81.38,9.63.76,14.45,1.05,1.36-1.81,2.81-3.53,4.18-5.34-.37,3.91-.73,7.91-1.09,11.91,7.81-9.43.81-6.19,23.81-4.38,10.36.76,18.9.95,29.35,2.86,5,.86,9.9.09,15.08.38,4.46.19,3.37.76,7.18,1.05,18.72,1.62,35.08-3.24,53.71-3.24,27.54.19,45.17.76,71.16,9.91a133.31,133.31,0,0,0,19.81,5.24c10.45,1.9,27.9,10.38,48.25,7.43,22.45-3.43,25.27-1.24,45.71-.86,11.45.29,22-.28,32.17.95,46.35,5.63,48.26-20.95,99.33-9.33,4.82,1.15,6.73,3.57,10,6.3h3.09a100.54,100.54,0,0,0,4.18-10.3c2.09,5.05,4.09,10.34,6.18,15.39,1.36-1.81,2.72-3.51,4.18-5.32,0,7-1.28,39.6-.64,41.89,3.45,13.34,13.54,10.23,19.36,12.13,3.27,1.15,4.54,2.4,8,3.64,13.54,5.05,22.63,3.1,37.26,3.1,17.36,0,26.81,2.14,39.26,2.14H950.3c17,2.73,30.9-2.33,47.16-6.9,7.82-2.29,24.27,2.55,38.45-17.55,3.81-5.34,6.36-7.64,6.36-16.88.09-15-4.91-26-7.27-40a41.79,41.79,0,0,1,17.63-4.31c5.81-1.81,11.53-3.59,17.43-5.3-3.45-1.53-5.26-2.92-10.46-4.35v-6.48c5.2-1.43,5.92-4.16,8.47-5.12,12.17-4.67,15.36-2.12,26.9-13h-11.35c3.45-2.73,6.17-2.22,7.08-8.89.73-5.24.37-4.69,3.64-8.78,1.27-1.62.45-.63,2-2,14.72-12.49,33.89-3.32,48.43-18.37,3.73-3.91,4.28-5.28,9.09-7.85,3.73-2,6.18-4.55,9.27-7.5-16.9.38-15,6.49-41.35-4.37a48.89,48.89,0,0,1,.18-7.33c.82-3.43,6.46-6.19,9.73-8.29,2.36-1.62,1.27.1,3.54-3.81-5.81,0-5.09.2-9.72,1.72-11.72,3.72-13.45-4-30.54-3.91-20.44.1-23.35,1-29.53-12.38-.82-1.72-1.64-3.34-2.54-5,5.54-8.67,10.54-18.48,18.17-15.91,6.36,2.19.27,3.81,8.45,1.62,18.54-5,24.54,2.48,35.08,2,1.09-.19,2.27-.47,3.36-.67-2.18-3.24-4.18-1.71-7.63-3.9-2.55-1.53-4-3.43-5.73-5.91,2.37-2.19,4.82-4.29,7.18-6.48,1.73,2.86,3.46,5.81,5.18,8.67,6.46,0,4.46-1.71,9.27-.09,4.36,1.52,6.18,1.81,10.54.28,5.82-2,11.18-5.33,16.36-8.86-7.09,0-10.45.57-12.09-5.91-1.36-5.52,1.73-10.19,6.09-12.29l28.72-8.86c-2.27-3.24-3.73-2.48-9-1.9-2.18-1.53-4.36-3-6.45-4.58,3.55-1,5.54-2.57,9.63-4,5.37-1.91,6.55-1.43,13.09-1.43,5.73,0,7.09-1.52,12.36-1.14,26.63,3.33,2.18,2.19,27.72-6.58,3.9-1.43,7.72-2.76,11.63-4.19,7.36-1.81,20.63-3,28.17-3.81,0-.38-6.54-.19-6.54-.57-4.55,0-6.46-1.43-12.45-1.15s-19.27,3.72-24.72,3.43c-12.09-.76-8.09-5.52-18.45,2.29-8.18,6.1-13.63,7.43-25,7.34-22.81-.1-13,6.19-34.08-7.53,2.18-3.43,5.64-6.57,8.27-9.81-5.27,1.33-11.63,3.81-16.72,5.24-5.82,1.9-11.63,3.71-17.36,5.62,1,2.57,2,5,3.09,7.62-3.36,2.38-6.18,4.57-9.45,7.34-13.18,11.15-22.81,11.53-39.07,7.81.72-3-.37-.86,1.27-2.95.91-.86,1.91-1.62,2.81-2.48-7.81,0-13.81-3.53-20.62-6.48,1-2.19,2-4.38,3.09-6.48-4.64.38-3.73,1.33-7.91,3.62-3.27,1.72-5.45,2.57-8.63,3.91-12.45,5.43-28.81,3.81-41.72,6.1-14.9,2.57-28.62-5-43.62-2.39-8.17,1.43-14.35-.47-18.63,5.34-8.9,12-4,27.25-1.36,40.78A274.12,274.12,0,0,1,910,134.13C910,118.22,908,112.21,908,93c.09-15.72-1-17-14.45-17.25-5-.19-4.72-1-9.27-1.14-11.26-.67-25.45,2.48-36.17,4.1-13.27,1.9-27.34.38-37.72-.86V74.58c-18.18,1.24-2.81,6-24,0C786,76.39,785,78.2,784.63,80c-7.82-.19-6.31-5-12.68-5.59-3,0-5-1.2-6.4-1.2h-4.27c-1.36-2.73-2.73-3.29-4.09-5.1-1.82,7.91-2.64,5.1-4.18,18.72h-1c0-5.45.55-8.65-1.09-10.94-7.54-11.34-35.44-2.47-45,1.43-28.81,11.72-35.17-2.8-59.07.82-6.64.95-11.18,3-20.54,1.4-6.36-.19-11.45,2.09-13.81,9.14q.54-4.86,1.09-9.72c-10.55-2.1-21-4.1-31.45-6.1-11.08-2.29-19.81-5.06-30.53-7-9.18-1.53-24-3-35.17-2.1-3.82.29-3.45,1-8.18,1L481.47,66c-13.81,1.72-22.35-.19-35.26-.09-22.81.28-57.07-8.58-80.43-12.58-6.08-.48-12.44-.95-17.63-1.52V55c-10.38-1.42-19.81-2.85-29.44-4.28,3,4.67,4.27,3.9,6.45,8.1C326,60.86,326.76,62.86,327.57,64.86Z" transform="translate(66.58 -50.1)"/><text class="cls-4" transform="matrix(0.98, -0.01, 0.01, 1, 463.92, 184.82)">A</text><text class="cls-4" transform="matrix(0.98, -0.05, 0.05, 1, 542.35, 184.17)">n</text><text class="cls-4" transform="matrix(0.98, -0.01, 0.01, 1, 617.63, 179.63)">g</text><text class="cls-4" transform="matrix(0.98, 0.07, -0.07, 1, 675.51, 178.36)">m</text><text class="cls-4" transform="matrix(0.98, 0.08, -0.08, 1, 757.93, 185.16)">a</text><text class="cls-4" transform="matrix(0.98, -0.03, 0.03, 1, 832.53, 191.11)">n</text><text class="cls-5" transform="translate(302.81 190.07) scale(1.19 1)">H</text><path class="cls-6" d="M-65.13,476.06a1.5,1.5,0,0,0,0-3,1.5,1.5,0,0,0,0,3Z" transform="translate(66.58 -50.1)"/></svg>